<svg width="24" height="24" viewBox="0 0 24 24" fill="none" xmlns="http://www.w3.org/2000/svg">
<path d="M21.2857 11.2857H21.2495C20.9007 6.73544 17.2641 3.09906 12.7143 2.75049V2.7143C12.7143 2.31984 12.3948 2 12 2C11.6052 2 11.2857 2.31984 11.2857 2.7143V2.75049C6.73585 3.09935 3.09906 6.73556 2.75049 11.2857H2.7143C2.31952 11.2857 2 11.6055 2 12C2 12.3945 2.31952 12.7143 2.7143 12.7143H2.75049C3.09935 17.2646 6.73589 20.9009 11.2857 21.2495V21.2857C11.2857 21.6802 11.6052 22 12 22C12.3948 22 12.7143 21.6802 12.7143 21.2857V21.2495C17.2642 20.9007 20.9009 17.2644 21.2495 12.7143H21.2857C21.6805 12.7143 22 12.3945 22 12C22 11.6055 21.6805 11.2857 21.2857 11.2857ZM19.8214 12.7071C19.4831 16.4758 16.4757 19.4831 12.707 19.8215C12.6872 19.4446 12.3819 19.1429 11.9999 19.1429C11.6179 19.1429 11.3126 19.4446 11.2928 19.8215C7.52409 19.4832 4.51679 16.4758 4.17841 12.7071C4.55565 12.6873 4.857 12.3817 4.857 12C4.857 11.6183 4.55565 11.3126 4.17841 11.2929C4.51675 7.52419 7.52413 4.51688 11.2928 4.17851C11.3126 4.55543 11.6179 4.85709 11.9999 4.85709C12.3819 4.85709 12.6873 4.55543 12.707 4.17851C16.4757 4.51684 19.483 7.52423 19.8214 11.2929C19.4442 11.3127 19.1428 11.6183 19.1428 12C19.1428 12.3817 19.4442 12.6874 19.8214 12.7071Z" fill="#979797"/>
<path d="M11.9999 5.57227C8.44953 5.57227 5.57129 8.45051 5.57129 12.0009C5.57129 15.5513 8.44953 18.4296 11.9999 18.4296C15.5504 18.4296 18.4286 15.5513 18.4286 12.0009C18.4286 8.45051 15.5504 5.57227 11.9999 5.57227ZM15.5714 15.5724C15.5714 15.9669 15.2519 16.2867 14.8571 16.2867H9.14277C8.74799 16.2867 8.42847 15.9669 8.42847 15.5724V14.1438C8.42847 12.9622 9.38975 12.0009 10.5714 12.0009H11.9999C10.8183 12.0009 9.85706 11.0396 9.85706 9.85804C9.85706 8.67643 10.8183 7.71515 11.9999 7.71515C13.1816 7.71515 14.1428 8.67643 14.1428 9.85804C14.1428 11.0396 13.1816 12.0009 11.9999 12.0009H13.4285C14.6101 12.0009 15.5714 12.9622 15.5714 14.1438V15.5724Z" fill="#979797"/>
</svg>
