<svg width="18" height="18" viewBox="0 0 18 18" fill="none" xmlns="http://www.w3.org/2000/svg">
<path d="M11.5889 17.3571C11.5889 17.5276 11.5214 17.6912 11.4014 17.8117C11.2813 17.9323 11.1183 18 10.9485 18H7.10629C6.87745 18 6.66604 17.8775 6.55169 17.6786C6.43734 17.4797 6.43734 17.2346 6.55169 17.0357C6.66604 16.8368 6.87745 16.7143 7.10629 16.7143H10.9485C11.1183 16.7143 11.2813 16.782 11.4014 16.9025C11.5214 17.0231 11.5889 17.1867 11.5889 17.3571ZM16.7631 11.1985L15.4312 10.5557V6.42852C15.4312 4.72351 14.7565 3.08837 13.5555 1.88295C12.3547 0.677317 10.7259 0 9.02756 0C7.32922 0 5.70033 0.677317 4.49957 1.88295C3.2986 3.08845 2.6239 4.72359 2.6239 6.42852V10.53L1.292 11.1728C0.667211 11.462 0.210936 12.0252 0.0566977 12.6982C-0.0976799 13.3713 0.0671326 14.078 0.503093 14.6122C0.939059 15.1466 1.59689 15.448 2.28457 15.4286H15.7708C16.4452 15.4308 17.0839 15.1254 17.5073 14.5986C17.9307 14.0718 18.0929 13.3805 17.9483 12.7194C17.8036 12.0582 17.3678 11.4988 16.7634 11.1987L16.7631 11.1985Z" fill="#F2F2F2"/>
</svg>
