<svg width="70" height="71" viewBox="0 0 70 71" fill="none" xmlns="http://www.w3.org/2000/svg">
<defs>
<linearGradient id="paint0_linear_969_13064" x1="17.4846" y1="18.3932" x2="60.2786" y2="41.4343" gradientUnits="userSpaceOnUse">
<stop stop-color="#6AB6F3"/>
<stop offset="1" stop-color="#0061AF"/>
</linearGradient>
<linearGradient id="paint1_linear_969_13064" x1="43.3484" y1="24.3955" x2="49.0789" y2="27.4515" gradientUnits="userSpaceOnUse">
<stop stop-color="#6AB6F3"/>
<stop offset="1" stop-color="#0061AF"/>
</linearGradient>
</defs>
<g opacity="0.5">
<circle opacity="0.5" cx="35" cy="35.5" r="35" fill="#0061AF" fill-opacity="0.25"/>
<circle opacity="0.5" cx="35" cy="35.5" r="29.5312" fill="#0061AF" fill-opacity="0.25"/>
</g>
<path d="M54.6193 34.7558L52.0671 29.6513C51.9614 29.4343 51.7404 29.2976 51.4991 29.3004H51.0143L50.3763 28.6624H51.4991C51.6683 28.6624 51.8306 28.5951 51.9503 28.4755C52.0699 28.3559 52.1371 28.1935 52.1371 28.0243V25.4721C52.1371 25.3029 52.0699 25.1405 51.9503 25.0209C51.8306 24.9013 51.6683 24.8341 51.4991 24.8341H50.3763L51.1739 24.0427C51.4225 23.7921 51.4225 23.3876 51.1739 23.1369L49.3679 21.331C49.1172 21.0823 48.7128 21.0823 48.4621 21.331L47.6708 22.1286V21.0058C47.6708 20.8366 47.6035 20.6742 47.4839 20.5546C47.3643 20.4349 47.2019 20.3677 47.0327 20.3677H44.4805C44.1282 20.3677 43.8425 20.6534 43.8425 21.0058V22.1286L43.0511 21.331C42.8005 21.0823 42.396 21.0823 42.1453 21.331L40.3394 23.1369C40.0907 23.3876 40.0907 23.7921 40.3394 24.0427L41.137 24.8341H40.0142C39.6618 24.8341 39.3761 25.1198 39.3761 25.4721V28.0243C39.3761 28.1935 39.4433 28.3559 39.563 28.4755C39.6826 28.5951 39.845 28.6624 40.0142 28.6624H41.137L40.4989 29.3004H36.8239V27.9796C36.8222 27.4421 37.0495 26.9291 37.4491 26.5696C38.934 25.2505 39.6316 23.2577 39.2938 21.3006C38.9562 19.3434 37.6311 17.6996 35.7902 16.9542C35.5928 16.873 35.3681 16.8961 35.1912 17.0151C35.0143 17.1345 34.9086 17.3341 34.9097 17.5475V21.9372L33.6336 22.7923L32.3575 21.9372V17.5475C32.3587 17.3341 32.253 17.1345 32.0761 17.0151C31.8992 16.8961 31.6745 16.873 31.4771 16.9542C29.6361 17.6996 28.311 19.3435 27.9735 21.3006C27.6357 23.2577 28.3332 25.2505 29.8182 26.5696C30.2178 26.9291 30.4451 27.4421 30.4434 27.9796V29.3004H29.8053C29.5641 29.2976 29.343 29.4343 29.2373 29.6513L26.6851 34.7558C26.5857 34.9532 26.5957 35.1882 26.7113 35.3767C26.827 35.565 27.0321 35.6804 27.2531 35.6809H29.1673V43.4783L27.8912 43.7973V42.6998C27.8912 42.5306 27.824 42.3682 27.7043 42.2486C27.5847 42.129 27.4223 42.0617 27.2531 42.0617H22.1487C21.7964 42.0617 21.5107 42.3474 21.5107 42.6998V43.3378H17.0443C16.692 43.3378 16.4062 43.6235 16.4062 43.9759V52.9086C16.4062 53.0778 16.4735 53.2402 16.5931 53.3598C16.7127 53.4794 16.8751 53.5467 17.0443 53.5467H21.5107V54.1847C21.5107 54.3539 21.5779 54.5163 21.6975 54.6359C21.8172 54.7555 21.9795 54.8228 22.1487 54.8228H27.2531C27.4223 54.8228 27.5847 54.7555 27.7043 54.6359C27.8239 54.5163 27.8912 54.3539 27.8912 54.1847V53.3043L28.7144 53.7127V53.7125C29.3348 54.0215 30.0181 54.183 30.7114 54.1847H40.2632C41.0474 54.1864 41.8182 53.9794 42.4964 53.5849L53.2157 47.3958C53.8483 47.0309 54.2938 46.4116 54.4394 45.6958C54.5846 44.98 54.4157 44.2363 53.9753 43.6532C53.535 43.0704 52.8656 42.7047 52.1373 42.6489V35.6813H54.0514C54.2724 35.6807 54.4775 35.5653 54.5932 35.3771C54.7088 35.1885 54.7188 34.9535 54.6194 34.7561L54.6193 34.7558ZM21.5106 52.2705H17.6823V44.6138H21.5106V52.2705ZM26.615 53.5466H22.7867V43.3377H26.615V53.5466ZM40.6522 27.3864V26.1103H42.1516C42.4327 26.1095 42.6808 25.9261 42.764 25.6574C42.7919 25.5669 42.8283 25.4794 42.8725 25.3957C43.0015 25.1484 42.9551 24.8462 42.7577 24.6491L41.6921 23.5901L42.5982 22.684L43.6572 23.7496C43.8544 23.947 44.1566 23.9934 44.4038 23.8644C44.4875 23.8202 44.575 23.7838 44.6656 23.7558C44.9342 23.6727 45.1176 23.4246 45.1185 23.1434V21.644H46.3946V23.1434C46.3954 23.4246 46.5789 23.6727 46.8475 23.7558C46.9381 23.7838 47.0255 23.8202 47.1092 23.8644C47.3565 23.9934 47.6587 23.947 47.8558 23.7496L48.9148 22.684L49.8209 23.5901L48.7553 24.6491C48.5579 24.8462 48.5115 25.1485 48.6405 25.3957C48.6847 25.4794 48.7212 25.5669 48.7491 25.6574C48.8322 25.9261 49.0804 26.1095 49.3615 26.1103H50.8609V27.3864H49.3615C49.0803 27.3873 48.8322 27.5707 48.7491 27.8393C48.7212 27.9299 48.6847 28.0174 48.6405 28.1011C48.5115 28.3484 48.5579 28.6506 48.7553 28.8477L49.2148 29.3006H42.2982L42.7576 28.8477C42.955 28.6506 43.0015 28.3483 42.8724 28.1011C42.8283 28.0174 42.7918 27.9299 42.7639 27.8393C42.6807 27.5707 42.4326 27.3873 42.1515 27.3864H40.6522ZM41.2902 32.6441L42.6364 35.3302C42.7421 35.5473 42.9631 35.684 43.2044 35.6812H50.861V42.8783C50.7972 42.9102 50.7271 42.9421 50.6633 42.974L44.4424 46.5662C44.1025 46.0572 43.5904 45.688 43.0002 45.5262L41.2903 45.0733L41.2902 32.6441ZM29.1672 22.2822C29.1641 20.8193 29.8796 19.4477 31.0814 18.6134V22.2822C31.0825 22.4955 31.1902 22.6943 31.3685 22.8117L33.2827 24.0878C33.4937 24.2345 33.7735 24.2345 33.9845 24.0878L35.8987 22.8117C36.077 22.6943 36.1847 22.4955 36.1858 22.2822V18.6134C37.3081 19.3945 38.0105 20.6464 38.0928 22.0111C38.1749 23.3758 37.6274 24.7028 36.6068 25.613C35.9291 26.2123 35.5432 27.0754 35.5478 27.98V29.3008H34.2717V27.3867C34.2717 27.0343 33.986 26.7486 33.6336 26.7486C33.2813 26.7486 32.9956 27.0343 32.9956 27.3867V29.3008H31.7194V27.98C31.7237 27.0768 31.3403 26.2148 30.6666 25.613C29.7121 24.7693 29.1661 23.5561 29.1672 22.2823V22.2822ZM28.2868 34.4052L30.201 30.5768H39.6186L37.7044 34.4052H28.2868ZM40.0138 32.6443V44.7286L33.48 42.9805C32.7474 42.7828 31.9763 42.7763 31.2406 42.9611L30.443 43.1591V35.6811H38.0996C38.3409 35.684 38.5619 35.5473 38.6676 35.3302L40.0138 32.6443ZM53.0366 44.55C53.2061 44.8419 53.2531 45.1894 53.1668 45.5159C53.0808 45.8423 52.8689 46.1214 52.5775 46.2918L41.8582 52.4809C41.3734 52.7615 40.8231 52.909 40.2631 52.9085H30.7113C30.2148 52.9096 29.7252 52.7937 29.2819 52.5703L27.891 51.8747V45.1114L31.547 44.199C32.0731 44.066 32.6245 44.0703 33.1487 44.2118L42.6684 46.7641H42.6681C42.9966 46.8492 43.2774 47.0623 43.4477 47.356C43.6181 47.6493 43.6639 47.9989 43.5751 48.3265C43.4862 48.654 43.2697 48.9323 42.9746 49.0993C42.6838 49.2707 42.3363 49.3169 42.011 49.2269L34.3988 47.1851C34.057 47.0937 33.7055 47.2965 33.6141 47.6383C33.5223 47.9801 33.7251 48.3313 34.067 48.4231L41.6791 50.4585V50.4583C41.8956 50.5167 42.1186 50.5466 42.3428 50.5477C42.7891 50.5483 43.2275 50.4295 43.6126 50.203C44.2017 49.8666 44.6312 49.3083 44.8055 48.6526C44.8764 48.3715 44.9001 48.0804 44.8759 47.7913L51.3011 44.0843C51.5942 43.9214 51.9391 43.8792 52.263 43.9661C52.5868 44.053 52.8643 44.2623 53.0363 44.55L53.0366 44.55ZM43.6 34.4053L41.6859 30.577H51.1035L53.0177 34.4053H43.6Z" fill="url(#paint0_linear_969_13064)"/>
<path d="M48.309 26.7475C48.309 26.0707 48.0401 25.4215 47.5616 24.9427C47.0827 24.4642 46.4336 24.1953 45.7568 24.1953C45.08 24.1953 44.4308 24.4642 43.952 24.9427C43.4735 25.4216 43.2046 26.0707 43.2046 26.7475C43.2046 27.4243 43.4735 28.0735 43.952 28.5523C44.4308 29.0308 45.08 29.2997 45.7568 29.2997C46.4336 29.2997 47.0828 29.0308 47.5616 28.5523C48.0401 28.0735 48.309 27.4243 48.309 26.7475ZM45.7568 28.0236C45.4184 28.0236 45.0937 27.8892 44.8544 27.6499C44.6151 27.4106 44.4807 27.0859 44.4807 26.7475C44.4807 26.4091 44.6151 26.0844 44.8544 25.8451C45.0937 25.6059 45.4184 25.4714 45.7568 25.4714C46.0952 25.4714 46.4199 25.6059 46.6592 25.8451C46.8984 26.0844 47.0329 26.4091 47.0329 26.7475C47.0329 27.0859 46.8984 27.4106 46.6592 27.6499C46.4199 27.8892 46.0952 28.0236 45.7568 28.0236Z" fill="url(#paint1_linear_969_13064)"/>

</svg>
