<svg width="26" height="26" viewBox="0 0 26 26" fill="none" xmlns="http://www.w3.org/2000/svg">
<path fill-rule="evenodd" clip-rule="evenodd" d="M3.00438 24.0491C2.98128 24.2902 3.05058 24.5313 3.18918 24.7188C3.32779 24.8929 3.5357 25 3.7436 25H22.9635C23.1714 25 23.3793 24.8929 23.5179 24.7188C23.6565 24.5313 23.7258 24.2902 23.7027 24.0491L22.2242 8.62054C22.178 8.19196 21.8662 7.85714 21.485 7.85714H18.5281V9.57143C18.5281 10.5223 17.8697 11.2857 17.0497 11.2857C16.2296 11.2857 15.5712 10.5223 15.5712 9.57143V7.85714H11.1359V9.57143C11.1359 10.5223 10.4775 11.2857 9.65741 11.2857C8.83733 11.2857 8.17896 10.5223 8.17896 9.57143V7.85714H5.22205C4.84089 7.85714 4.52903 8.19196 4.48283 8.62054L3.00438 24.0491ZM17.7889 6.14286C17.7889 3.30357 15.8022 1 13.3535 1C10.9049 1 8.91818 3.30357 8.91818 6.14286V9.57143C8.91818 10.0402 9.25314 10.4286 9.65741 10.4286C10.0617 10.4286 10.3966 10.0402 10.3966 9.57143V6.14286C10.3966 4.25447 11.7249 2.71429 13.3535 2.71429C14.9821 2.71429 16.3104 4.25447 16.3104 6.14286V9.57143C16.3104 10.0402 16.6454 10.4286 17.0497 10.4286C17.4539 10.4286 17.7889 10.0402 17.7889 9.57143V6.14286ZM19.818 20.1812L18.4558 19.5746L17.2449 19.0356C17.0113 18.9318 16.7338 19.0185 16.6085 19.2345L16.0647 20.1736C15.9481 20.3772 15.6942 20.4685 15.467 20.3885C15.4213 20.3723 15.375 20.3563 15.3274 20.3399L15.3273 20.3399L15.3273 20.3399L15.3273 20.3399C14.8534 20.1765 14.2573 19.9711 12.9952 19.0834C11.7297 18.1933 11.3457 17.7112 11.0395 17.3267C11.0097 17.2892 10.9806 17.2527 10.9515 17.2168C10.8032 17.0332 10.817 16.7731 10.9839 16.6049L11.7517 15.8231C11.9282 15.6431 11.9303 15.363 11.7565 15.1806L10.8826 14.2649L9.84042 13.173C9.66303 12.9871 9.36488 12.9678 9.16304 13.129L8.27847 13.8357C8.03898 14.024 7.8841 14.2935 7.8459 14.5884C7.72989 15.5616 8.0085 17.6287 11.9787 20.4174C15.9489 23.206 18.0853 22.8352 19.0163 22.4345C19.2976 22.3103 19.5183 22.087 19.6327 21.8109L20.0667 20.7876C20.1657 20.5542 20.0562 20.2872 19.818 20.1812ZM17.8994 16.6687C17.6182 14.9392 15.9317 13.7546 14.1294 14.0207C14.0234 14.0365 13.9241 13.9667 13.9077 13.865C13.8913 13.7631 13.9639 13.6678 14.07 13.6521C16.0842 13.3546 17.9692 14.6786 18.2835 16.6116C18.2999 16.7134 18.2272 16.8087 18.1212 16.8245C18.0151 16.8403 17.9158 16.7705 17.8994 16.6687ZM14.3079 15.1267C15.4741 14.9546 16.5653 15.7211 16.7473 16.8402C16.7637 16.942 16.863 17.0117 16.9691 16.9959C17.0751 16.9802 17.1478 16.8848 17.1314 16.783C16.9162 15.4605 15.6266 14.5546 14.2484 14.7581C14.1424 14.7738 14.0697 14.8692 14.0862 14.971C14.1026 15.0728 14.2019 15.1425 14.3079 15.1267ZM15.5954 17.0115C15.5127 16.5028 15.0167 16.1544 14.4866 16.2326C14.3806 16.2484 14.2813 16.1787 14.2649 16.0769C14.2484 15.9751 14.3211 15.8797 14.4271 15.864C15.1692 15.7544 15.8637 16.2422 15.9795 16.9543C15.9959 17.0561 15.9232 17.1515 15.8172 17.1672C15.7112 17.183 15.6119 17.1133 15.5954 17.0115Z" fill="#BDBDBD"/>
</svg>
