<svg width="24" height="24" viewBox="0 0 24 24" fill="none" xmlns="http://www.w3.org/2000/svg">
<path d="M3.69262 11.3075H10.6158C10.9987 11.3075 11.3082 10.9974 11.3082 10.6152L11.308 3.69236C11.308 3.31017 10.9986 3 10.6157 3H3.69284C3.30995 3 3.00049 3.31018 3.00049 3.69236V10.6155C3.00049 10.9976 3.30994 11.3078 3.69284 11.3078L3.69262 11.3075ZM4.38497 4.38471H9.9233V9.92304H4.38497V4.38471Z" fill="#979797"/>
<path d="M13.3847 11.3075H20.3079C20.6908 11.3075 21.0003 10.9974 21.0003 10.6152V3.69236C21.0003 3.31017 20.6908 3 20.3079 3H13.3847C13.0018 3 12.6924 3.31018 12.6924 3.69236V10.6155C12.6925 10.9976 13.002 11.3078 13.3847 11.3078V11.3075ZM14.0771 4.38471H19.6154V9.92304H14.0771V4.38471Z" fill="#979797"/>
<path d="M3 20.307C3 20.6898 3.30945 20.9993 3.69236 20.9993H10.6155C10.9984 20.9993 11.3079 20.6899 11.3079 20.307L11.3078 13.3838C11.3078 13.0009 10.9983 12.6914 10.6154 12.6914L3.69258 12.6916C3.30969 12.6916 3.00023 13.001 3.00023 13.3839L3 20.307ZM4.38471 14.0762H9.92304V19.6145H4.38471V14.0762Z" fill="#979797"/>
<path d="M13.3847 17.5378H16.154V20.307C16.154 20.6899 16.4635 20.9994 16.8464 20.9994C17.2293 20.9994 17.5387 20.6899 17.5387 20.307V17.5378H20.308C20.6909 17.5378 21.0004 17.2283 21.0004 16.8454C21.0004 16.4625 20.6909 16.153 20.308 16.153H17.5387V13.3838C17.5387 13.0009 17.2293 12.6914 16.8464 12.6914C16.4635 12.6914 16.154 13.0009 16.154 13.3838V16.153H13.3847C13.0018 16.153 12.6924 16.4625 12.6924 16.8454C12.6925 17.2283 13.002 17.5378 13.3847 17.5378Z" fill="#979797"/>
</svg>
