<svg width="24" height="24" viewBox="0 0 24 24" fill="none" xmlns="http://www.w3.org/2000/svg">
<path d="M7.4751 12.6993C5.4751 10.6993 5.4751 7.2993 7.4751 5.2993C7.87506 4.99922 8.37506 4.99922 8.67517 5.29916C8.97511 5.5991 8.97511 6.19912 8.67517 6.49923C7.2752 7.89919 7.2752 10.0992 8.67517 11.3992C8.97511 11.6992 8.97511 12.2992 8.67517 12.5993C8.37509 12.9993 7.8751 12.9993 7.4751 12.6993V12.6993Z" fill="#56CCF2"/>
<path d="M19.4748 15.6998C19.1749 16.0998 18.5749 16.0998 18.2748 15.6998C17.9748 15.2999 17.9748 14.6998 18.2748 14.3999C20.9748 11.3999 20.9748 6.5999 18.2748 3.5999C17.9748 3.19994 17.9748 2.5999 18.2748 2.29997C18.5747 1.90001 19.1747 1.90001 19.4748 2.29997C22.7748 5.99961 22.7748 11.9996 19.4748 15.7V15.6998Z" fill="#56CCF2"/>
<path d="M15.9751 18.9983V21.9983H7.9751V18.9983C7.9751 18.3983 8.37506 17.9983 8.9751 17.9983H10.9751V10.6984C10.275 10.2982 9.77503 9.39828 10.0751 8.49828C10.1752 7.79821 10.8751 7.19835 11.5751 6.99828C12.8751 6.79822 13.9751 7.79821 13.9751 8.99828C13.9751 9.69835 13.5751 10.3982 12.9751 10.6984V17.9983H14.9751C15.4751 17.9983 15.9751 18.4983 15.9751 18.9983Z" fill="#56CCF2"/>
<path d="M16.4748 5.29977C18.4748 7.29977 18.4748 10.5998 16.4748 12.6998C16.1749 12.9997 15.5749 12.9997 15.2748 12.6998C14.9748 12.3998 14.9748 11.7998 15.2748 11.4997C16.5747 10.0997 16.5747 7.8997 15.2748 6.5997C14.9748 6.29976 14.9748 5.69974 15.2748 5.39963C15.5748 4.99981 16.0748 4.99981 16.4748 5.29974V5.29977Z" fill="#56CCF2"/>
<path d="M5.67502 3.60004C3.07498 6.60004 2.97495 11.4 5.67502 14.4C5.97496 14.8 5.97496 15.4 5.67502 15.7C5.37507 16.0999 4.77505 16.0999 4.47495 15.7C1.17502 12 1.17502 5.99997 4.47495 2.29997C4.77489 1.90001 5.37491 1.90001 5.67502 2.29997C5.97496 2.60006 5.97496 3.29997 5.67502 3.60004Z" fill="#56CCF2"/>
</svg>
