<svg width="24" height="24" viewBox="0 0 24 24" fill="none" xmlns="http://www.w3.org/2000/svg">
<path d="M7.09751 2C5.89381 2 4.90248 2.99155 4.90248 4.1952C4.90248 5.39886 5.89385 6.39024 7.09751 6.39024C7.27546 6.39024 7.44968 6.37016 7.61571 6.32933L9.25443 9.20271C9.02577 9.42542 8.8291 9.67754 8.66 9.94975L5.39023 8.79879C5.37339 7.60925 4.38832 6.63421 3.19503 6.63421C1.99151 6.63421 1 7.62558 1 8.82924C1 10.0329 1.99155 11.0244 3.19503 11.0244C3.8895 11.0244 4.51406 10.6963 4.91763 10.186L8.13418 11.3217C8.09505 11.5423 8.0731 11.7684 8.0731 12C8.0731 12.7453 8.29376 13.4412 8.66008 14.0351L5.85529 16.8399C5.57372 16.7075 5.26222 16.634 4.93299 16.634C3.72929 16.634 2.73779 17.6256 2.73779 18.8292C2.73779 20.0329 3.72934 21.0243 4.93299 21.0243C6.13665 21.0243 7.12802 20.0329 7.12802 18.8292C7.12802 18.4859 7.04262 18.1596 6.89937 17.8688L9.64326 15.1249C10.2949 15.6132 11.1033 15.9025 11.9756 15.9025C12.5037 15.9025 13.009 15.7973 13.4696 15.6051L15.1159 18.471C14.8301 18.8417 14.6586 19.3053 14.6586 19.8048C14.6586 21.0085 15.65 22 16.8537 22C18.0573 22 19.0487 21.0085 19.0487 19.8048C19.0487 18.6011 18.0573 17.6098 16.8537 17.6098C16.6757 17.6098 16.5015 17.6298 16.3355 17.6707L14.6967 14.7973C14.9254 14.5746 15.1221 14.3225 15.2912 14.0503L18.5609 15.2012C18.5778 16.3908 19.5628 17.3658 20.7561 17.3658C21.9597 17.3658 22.9512 16.3744 22.9512 15.1708C22.9512 13.9671 21.9596 12.9756 20.7561 12.9756C20.0617 12.9756 19.4371 13.3037 19.0335 13.814L15.817 12.6783C15.8561 12.4577 15.8781 12.2316 15.8781 12C15.8781 11.2547 15.6574 10.5588 15.2911 9.96489L18.0959 7.16011C18.3774 7.29247 18.6889 7.36597 19.0182 7.36597C20.2219 7.36597 21.2134 6.37442 21.2134 5.17076C21.2134 3.96711 20.2218 2.97573 19.0182 2.97573C17.8145 2.97573 16.8231 3.96711 16.8231 5.17076C16.8231 5.51409 16.9085 5.84041 17.0518 6.13117L14.3079 8.87507C13.6563 8.38679 12.8478 8.09755 11.9755 8.09755C11.4475 8.09755 10.9421 8.20269 10.4816 8.39494L8.83522 5.52904C9.12104 5.15833 9.29254 4.69472 9.29254 4.1952C9.29254 2.99151 8.30116 2 7.09751 2ZM7.09751 3.4635C7.51025 3.4635 7.82925 3.7825 7.82925 4.19525C7.82925 4.60799 7.51026 4.927 7.09751 4.927C6.68475 4.927 6.36576 4.608 6.36576 4.19525C6.36576 3.78251 6.68475 3.4635 7.09751 3.4635ZM19.0182 4.43902C19.431 4.43902 19.75 4.75802 19.75 5.17077C19.75 5.58351 19.431 5.90252 19.0182 5.90252C18.6055 5.90252 18.2865 5.58352 18.2865 5.17077C18.2865 4.75803 18.6055 4.43902 19.0182 4.43902ZM3.19507 8.09755C3.60799 8.09755 3.92682 8.41655 3.92682 8.8293C3.92682 9.24204 3.608 9.56105 3.19507 9.56105C2.78233 9.56105 2.4635 9.24205 2.4635 8.8293C2.4635 8.41656 2.78233 8.09755 3.19507 8.09755ZM11.9755 9.56105C13.3312 9.56105 14.4146 10.6445 14.4146 12.0001C14.4146 13.3557 13.3312 14.4391 11.9755 14.4391C10.6199 14.4391 9.53652 13.3557 9.53652 12.0001C9.53652 10.6445 10.6199 9.56105 11.9755 9.56105ZM20.756 14.4391C21.1688 14.4391 21.4876 14.7581 21.4876 15.1708C21.4876 15.5836 21.1688 15.9026 20.756 15.9026C20.3431 15.9026 20.0243 15.5836 20.0243 15.1708C20.0243 14.7581 20.3431 14.4391 20.756 14.4391ZM4.93288 18.0976C5.34562 18.0976 5.66463 18.4166 5.66463 18.8294C5.66463 19.2421 5.34563 19.5611 4.93288 19.5611C4.52013 19.5611 4.20113 19.2421 4.20113 18.8294C4.20113 18.4166 4.52012 18.0976 4.93288 18.0976ZM16.8536 19.0731C17.2663 19.0731 17.5853 19.3921 17.5853 19.8049C17.5853 20.2176 17.2663 20.5366 16.8536 20.5366C16.4408 20.5366 16.1218 20.2176 16.1218 19.8049C16.1218 19.3921 16.4408 19.0731 16.8536 19.0731Z" fill="#F2994A"/>
</svg>
