<svg width="24" height="24" viewBox="0 0 24 24" fill="none" xmlns="http://www.w3.org/2000/svg">
<defs>
<linearGradient id="paint0_linear_3815_5989" x1="6.64104" y1="17.0626" x2="10.9717" y2="24.3125" gradientUnits="userSpaceOnUse">
<stop stop-color="#6AB6F3"/>
<stop offset="1" stop-color="#0061AF"/>
</linearGradient>
<linearGradient id="paint1_linear_3815_5989" x1="2.56338" y1="3.48631" x2="19.14" y2="17.7436" gradientUnits="userSpaceOnUse">
<stop stop-color="#6AB6F3"/>
<stop offset="1" stop-color="#0061AF"/>
</linearGradient>
</defs>
<path d="M17.0754 16.9199C16.6957 16.9199 16.411 17.2046 16.411 17.5843V18.47C16.411 18.8813 16.063 19.2293 15.6518 19.2293H8.40723C7.99598 19.2293 7.648 18.8813 7.648 18.47V17.6159C7.648 17.2363 7.36328 16.9516 6.98367 16.9516C6.60405 16.9516 6.31934 17.2363 6.31934 17.6159V18.47C6.31934 19.6405 7.26838 20.5579 8.40723 20.5579H15.6518C16.8223 20.5579 17.7397 19.6089 17.7397 18.47V17.5843C17.7397 17.2046 17.4233 16.9199 17.0754 16.9199Z" fill="url(#paint0_linear_3815_5989)"/>
<path d="M21.8519 11.0036C21.409 9.48514 20.0803 8.47282 18.4986 8.47282H18.2139C18.2772 7.17579 17.9924 6.10021 17.3597 5.21444C16.6005 4.10722 15.5566 3.41125 14.2595 3.0949C13.9432 3.03163 13.6268 3 13.2472 3C11.9186 3 10.1154 3.60106 9.00816 5.24607C8.56527 5.05626 8.09075 4.96136 7.61623 4.96136C5.74977 4.96136 4.19967 6.41656 4.04149 8.25138C3.85169 8.34628 3.66188 8.47282 3.44043 8.66263C2.93428 9.07388 2.52302 9.61167 2.26995 10.2444C1.85869 11.2567 1.92196 12.3955 2.42812 13.3446C3.09245 14.61 4.1364 15.3059 5.5916 15.4008H11.2541H12.7093H14.6073H18.1188H18.625C19.7005 15.3692 20.6496 14.8631 21.2823 13.9773C21.9783 13.0599 22.1681 11.9843 21.8517 11.0036H21.8519ZM14.4493 10.8454C13.8166 11.7312 13.184 12.4904 12.5196 13.1864C12.3614 13.3446 12.2033 13.4395 12.0135 13.4395C11.8237 13.4395 11.6655 13.3446 11.5073 13.1864C10.843 12.4904 10.2103 11.7312 9.57759 10.8454C9.48268 10.7189 9.45105 10.624 9.45105 10.4974C9.45105 10.4025 9.48268 10.3393 9.51432 10.276C9.57759 10.1495 9.73576 9.95966 10.0521 9.99129H10.8113H11.0012C10.9695 9.83312 10.9695 9.61167 10.9379 9.39023C10.8746 8.85244 10.7797 8.15647 10.7797 7.80849C10.7481 7.42887 10.8746 7.08089 11.1593 6.79618C11.4124 6.5431 11.7288 6.41656 12.0767 6.41656C12.8043 6.41656 13.3738 7.04926 13.3105 7.80849C13.2789 8.15647 13.2156 8.75753 13.1523 9.29533C13.1207 9.54841 13.089 9.80148 13.0574 9.99129H13.2472H14.0065C14.2595 9.99129 14.4493 10.0862 14.5443 10.3076C14.6075 10.4658 14.5759 10.6556 14.4493 10.8454Z" fill="url(#paint1_linear_3815_5989)"/>
</svg>
