<svg width="20" height="20" viewBox="0 0 20 20" fill="none" xmlns="http://www.w3.org/2000/svg">
<path d="M16.6666 4.35963e-06H3.33332C2.45013 0.00260854 1.6038 0.354726 0.979138 0.979142C0.354712 1.60376 0.00257142 2.45013 0 3.33332V11.1109C0 11.4057 0.117 11.6883 0.325518 11.8966C0.53385 12.1049 0.816419 12.2221 1.11104 12.2221H7.31101L8.42205 11.1111L5.87758 8.56643C5.59578 8.28463 5.48566 7.87391 5.5889 7.48887C5.69195 7.10383 5.99273 6.80325 6.37775 6.70001C6.7626 6.59678 7.17351 6.7069 7.45532 6.9887L9.99978 9.53317L12.5442 6.9887C12.826 6.70689 13.237 6.59678 13.6218 6.70001C14.0068 6.80325 14.3076 7.10385 14.4107 7.48887C14.5139 7.87391 14.4038 8.28463 14.122 8.56643L11.5775 11.1109L12.6886 12.2219L18.8885 12.2221C19.1832 12.2221 19.4657 12.1049 19.674 11.8966C19.8826 11.6883 19.9996 11.4057 19.9996 11.1109V3.33332C19.997 2.45013 19.6448 1.6038 19.0204 0.979138C18.3958 0.354712 17.5494 0.00257142 16.6662 0L16.6666 4.35963e-06Z" fill="#F2F2F2"/>
<path d="M9.53352 12.2227H7.31125L5.86688 13.667C5.42398 13.4503 4.93774 13.3363 4.44464 13.3337C3.56074 13.3337 2.71289 13.6849 2.0877 14.3101C1.46252 14.9351 1.11133 15.7829 1.11133 16.667C1.11133 17.5511 1.46252 18.399 2.0877 19.024C2.71289 19.6491 3.56074 20.0003 4.44464 20.0003C5.32874 20.0003 6.17659 19.6491 6.80178 19.024C7.42677 18.399 7.77796 17.5511 7.77796 16.667C7.77536 16.1739 7.66133 15.6877 7.44463 15.2448L10.0002 12.6892L12.5558 15.2448C12.3391 15.6877 12.2251 16.1739 12.2225 16.667C12.2225 17.5511 12.5737 18.399 13.1987 19.024C13.8239 19.6491 14.6717 20.0003 15.5558 20.0003C16.4397 20.0003 17.2876 19.6491 17.9128 19.024C18.538 18.399 18.8891 17.5511 18.8891 16.667C18.8891 15.7829 18.538 14.9351 17.9128 14.3101C17.2876 13.6849 16.4397 13.3337 15.5558 13.3337C15.0627 13.3363 14.5765 13.4503 14.1336 13.667L12.689 12.2227H9.53352Z" fill="#F2F2F2"/>
</svg>
