<svg width="18" height="18" viewBox="0 0 18 18" fill="none" xmlns="http://www.w3.org/2000/svg">
<path d="M13.2265 6.79412H11.8235V2.38235C11.8235 1.89706 11.4265 1.5 10.9412 1.5H7.41176C6.92647 1.5 6.52941 1.89706 6.52941 2.38235V6.79412H5.12647C4.34118 6.79412 3.94412 7.74706 4.5 8.30294L8.55 12.3529C8.89412 12.6971 9.45 12.6971 9.79412 12.3529L13.8441 8.30294C14.4 7.74706 14.0118 6.79412 13.2265 6.79412ZM3 15.6176C3 16.1029 3.39706 16.5 3.88235 16.5H14.4706C14.9559 16.5 15.3529 16.1029 15.3529 15.6176C15.3529 15.1324 14.9559 14.7353 14.4706 14.7353H3.88235C3.39706 14.7353 3 15.1324 3 15.6176Z" fill="#828282"/>
</svg>
