<svg width="24" height="24" viewBox="0 0 24 24" fill="none" xmlns="http://www.w3.org/2000/svg">
<path d="M10.2798 6.11969C10.5479 6.11969 10.7598 5.90369 10.7598 5.63578V3.48391C10.7598 3.216 10.5479 3 10.2798 3H9.34378C9.07564 3 8.85986 3.216 8.85986 3.48391V5.63578C8.85986 5.90392 9.07586 6.11969 9.34378 6.11969H10.2798Z" fill="#979797"/>
<path d="M19.0359 6.11969C19.3 6.11969 19.516 5.90369 19.516 5.63578V3.48391C19.516 3.216 19.3 3 19.0359 3H18.0958C17.8317 3 17.6157 3.216 17.6157 3.48391V5.63578C17.6157 5.90392 17.8317 6.11969 18.0958 6.11969H19.0359Z" fill="#979797"/>
<path d="M14.6558 6.11969C14.9237 6.11969 15.1397 5.90369 15.1397 5.63578V3.48391C15.1397 3.216 14.9237 3 14.6558 3H13.7198C13.4519 3 13.2397 3.216 13.2397 3.48391V5.63578C13.2397 5.90392 13.4517 6.11969 13.7198 6.11969H14.6558Z" fill="#979797"/>
<path d="M5.90406 6.11969C6.16813 6.11969 6.38413 5.90369 6.38413 5.63578V3.48391C6.38413 3.216 6.16813 3 5.90406 3H4.96396C4.69989 3 4.48389 3.216 4.48389 3.48391V5.63578C4.48389 5.90392 4.69989 6.11969 4.96396 6.11969H5.90406Z" fill="#979797"/>
<path d="M12.7979 17.3578C13.1555 16.2783 12.8815 15.1136 12.0831 14.3191C11.5121 13.7477 10.7327 13.4538 9.94456 13.4531L11.1645 14.673C11.273 14.7816 11.3103 14.9434 11.2591 15.0883L10.6474 16.8322C10.6072 16.9466 10.5174 17.0369 10.4025 17.0771L8.65844 17.6892C8.51309 17.7395 8.3517 17.7032 8.24314 17.5946L7.02322 16.3747C7.01261 17.1658 7.31777 17.9418 7.88877 18.513C8.68418 19.3113 9.84858 19.5854 10.9282 19.2283C11.0719 19.1811 11.2297 19.2182 11.3367 19.3251L14.0023 21.9907H17.1164L12.8948 17.7664C12.7878 17.6595 12.7503 17.5017 12.798 17.3579L12.7979 17.3578Z" fill="#979797"/>
<path d="M20.436 4.75977H20.3159V5.63572C20.3159 6.34377 19.7399 6.91978 19.036 6.91978H18.0959C17.3919 6.91978 16.8159 6.34378 16.8159 5.63572V4.75977H15.94V5.63572C15.94 6.34377 15.364 6.91978 14.6559 6.91978H13.7199C13.0159 6.91978 12.44 6.34378 12.44 5.63572V4.75977H11.56V5.63572C11.56 6.34377 10.984 6.91978 10.28 6.91978H9.34401C8.63597 6.91978 8.05995 6.34378 8.05995 5.63572V4.75977H7.184V5.63572C7.184 6.34377 6.60799 6.91978 5.90404 6.91978H4.96395C4.25995 6.91978 3.68399 6.34378 3.68399 5.63572V4.75977H3.56008C2.70013 4.75977 2 5.45966 2 6.31984V8.6918H21.9996V6.31984C21.9999 5.45966 21.3 4.75977 20.436 4.75977H20.436Z" fill="#979797"/>
<path d="M2 20.4311C2 21.2911 2.6999 21.991 3.56008 21.991H12.8714L10.9394 20.0589C9.64022 20.3975 8.27377 20.0334 7.32264 19.0784C6.37105 18.1266 6.00045 16.7254 6.35614 15.4227C6.39361 15.2852 6.50195 15.1782 6.6394 15.1414C6.77663 15.1055 6.92424 15.1441 7.02491 15.2452L8.63127 16.8511L9.95664 16.3864L10.4216 15.0615L8.81524 13.4551C8.71435 13.3543 8.67507 13.2075 8.71141 13.0696C8.7482 12.9322 8.85519 12.8238 8.99264 12.7864C10.297 12.4304 11.6968 12.8017 12.6488 13.7531C13.6035 14.7035 13.9683 16.0699 13.6288 17.3691L18.2479 21.9911H20.4361C21.3001 21.9911 22 21.2912 22 20.4312L21.9998 9.49219H2.00014L2 20.4311Z" fill="#979797"/>
</svg>
