<svg width="24" height="24" viewBox="0 0 24 24" fill="none" xmlns="http://www.w3.org/2000/svg">
<path fill-rule="evenodd" clip-rule="evenodd" d="M11.5555 2C12.1079 2 12.5555 2.44766 12.5555 2.99996V21C12.5555 21.5523 12.1079 22 11.5555 22C11.0032 22 10.5556 21.5523 10.5556 21V2.99996C10.5556 2.44766 11.0032 2 11.5555 2ZM7.33331 4.22223C7.88561 4.22223 8.33343 4.66989 8.33343 5.2222V18.7778C8.33343 19.3301 7.88561 19.7778 7.33331 19.7778H3.99996C3.44782 19.7778 3 19.3301 3 18.7778V5.2222C3 4.66989 3.44782 4.22223 3.99996 4.22223H7.33331ZM19.1111 4.22223C19.6634 4.22223 20.1111 4.66989 20.1111 5.2222V18.7778C20.1111 19.3301 19.6634 19.7778 19.1111 19.7778H15.7778C15.2255 19.7778 14.7778 19.3301 14.7778 18.7778V5.2222C14.7778 4.66989 15.2255 4.22223 15.7778 4.22223H19.1111ZM18.1112 6.22216H16.7778V17.7778H18.1112V6.22216Z" fill="#979797"/>
</svg>
