<svg width="24" height="24" viewBox="0 0 24 24" fill="none" xmlns="http://www.w3.org/2000/svg">
<path d="M20.884 2H7.9156C7.28398 2 6.7998 2.5053 6.7998 3.13677V7.66309L8.21033 7.66323V5.28425H20.5893V13.2843C20.5893 13.3264 20.5471 13.3684 20.5051 13.3684H18.3999V14.7789H20.884C21.5156 14.7789 21.9998 14.2736 21.9998 13.6631V3.13681C21.9998 2.50535 21.4945 2.00005 20.884 2.00005L20.884 2ZM8.67349 4.12639C8.39976 4.12639 8.18932 3.91581 8.18932 3.64222C8.18932 3.36849 8.3999 3.15805 8.67349 3.15805C8.94722 3.15805 9.15766 3.36863 9.15766 3.64222C9.15766 3.91581 8.92608 4.12639 8.67349 4.12639ZM10.1262 4.12639C9.85243 4.12639 9.64199 3.91581 9.64199 3.64222C9.64199 3.36849 9.85257 3.15805 10.1262 3.15805C10.3787 3.15805 10.6103 3.36863 10.6103 3.64222C10.6103 3.91581 10.3999 4.12639 10.1262 4.12639ZM11.5998 4.12639C11.3472 4.12639 11.1156 3.91581 11.1156 3.64222C11.1156 3.36849 11.3262 3.15805 11.5998 3.15805C11.8735 3.15805 12.084 3.36863 12.084 3.64222C12.084 3.91581 11.8735 4.12639 11.5998 4.12639Z" fill="#979797"/>
<path d="M16.0842 8.8418H3.11579C2.50534 8.8418 2 9.3471 2 9.95759V20.4839C2 21.0944 2.5053 21.5997 3.11579 21.5997H16.0632C16.6736 21.5997 17.179 21.0944 17.179 20.4839V9.95759C17.2001 9.34714 16.6948 8.8418 16.0843 8.8418H16.0842ZM6.8 9.99973C7.07373 9.99973 7.28418 10.2103 7.28418 10.4839C7.28418 10.7576 7.07359 10.9681 6.8 10.9681C6.52627 10.9682 6.31583 10.7576 6.31583 10.4839C6.31583 10.2103 6.52627 9.99973 6.8 9.99973ZM5.32636 9.99973C5.60008 9.99973 5.81053 10.2103 5.81053 10.4839C5.81053 10.7576 5.59994 10.9681 5.32636 10.9681C5.05263 10.9681 4.84218 10.7575 4.84218 10.4839C4.84218 10.2103 5.07377 9.99973 5.32636 9.99973ZM3.87369 9.99973C4.14741 9.99973 4.35786 10.2103 4.35786 10.4839C4.35786 10.7576 4.14727 10.9681 3.87369 10.9681C3.59996 10.9681 3.38951 10.7575 3.38951 10.4839C3.38951 10.2103 3.59995 9.99973 3.87369 9.99973ZM15.7895 20.1261C15.7895 20.1682 15.7473 20.2102 15.7053 20.2102H3.4948C3.45266 20.2102 3.41065 20.1681 3.41065 20.1261V12.126H15.7896L15.7895 20.1261Z" fill="#979797"/>
<path d="M9.83156 15.3268C9.95785 15.411 10.1473 15.3058 10.1473 15.1584V14.9058C10.6526 15.1164 11.0105 15.6427 11.0105 16.19C11.0105 16.4426 10.9473 16.6742 10.821 16.9058C10.7157 17.0742 10.7789 17.3058 10.9473 17.4111C11.0105 17.4532 11.0736 17.4532 11.1368 17.4532C11.2631 17.4532 11.3894 17.3901 11.4525 17.2638C11.6419 16.9269 11.7472 16.548 11.7472 16.169C11.7472 15.2217 11.1368 14.4006 10.2314 14.1059C10.1893 14.0849 10.1683 14.0849 10.1261 14.0849V13.6007C10.1261 13.4533 9.95771 13.3481 9.81042 13.4323L8.56835 14.2112C8.44206 14.2953 8.44206 14.4638 8.56835 14.5481L9.83156 15.3268Z" fill="#979797"/>
<path d="M8.94746 18.2522C8.98961 18.2732 9.01061 18.2732 9.05275 18.2732V18.7573C9.05275 18.9048 9.22119 19.0099 9.36848 18.9258L10.6106 18.1469C10.7368 18.0627 10.7368 17.8943 10.6106 17.81L9.36848 17.0311C9.22104 16.9679 9.05275 17.0732 9.05275 17.2207V17.4943C8.54745 17.2837 8.18956 16.7573 8.18956 16.21C8.18956 15.9575 8.2527 15.7259 8.379 15.4943C8.48429 15.3258 8.42114 15.0942 8.2527 14.989C8.08426 14.8837 7.85267 14.9468 7.7474 15.1153C7.55796 15.4522 7.45267 15.831 7.45267 16.2101C7.43167 17.1364 8.04215 17.9784 8.94749 18.2522L8.94746 18.2522Z" fill="#979797"/>
</svg>
