<svg width="18" height="18" viewBox="0 0 18 18" fill="none" xmlns="http://www.w3.org/2000/svg">
<path d="M15.75 1.5H6.75C6.3 1.5 6 1.8 6 2.25V6H2.25C1.8 6 1.5 6.3 1.5 6.75V15.75C1.5 16.2 1.8 16.5 2.25 16.5H11.25C11.7 16.5 12 16.2 12 15.75V12H15.75C16.2 12 16.5 11.7 16.5 11.25V2.25C16.5 1.8 16.2 1.5 15.75 1.5ZM9.75 11.7C9.75 11.85 9.6 12 9.45 12H7.5V13.95C7.5 14.1 7.35 14.25 7.2 14.25H6.3C6.15 14.25 6 14.1 6 13.95V12H4.05C3.9 12 3.75 11.85 3.75 11.7V10.8C3.75 10.65 3.9 10.5 4.05 10.5H6V8.55C6 8.4 6.15 8.25 6.3 8.25H7.2C7.35 8.25 7.5 8.4 7.5 8.55V10.5H9.45C9.6 10.5 9.75 10.65 9.75 10.8V11.7ZM15 10.5H12V6.75C12 6.3 11.7 6 11.25 6H7.5V3H15V10.5Z" fill="white"/>
</svg>
