<svg width="24" height="24" viewBox="0 0 24 24" fill="none" xmlns="http://www.w3.org/2000/svg">
<path d="M16.3335 2.19727V5.00054H19.1368L16.3335 2.19727Z" fill="#F2F2F2"/>
<path d="M16 5.66667C15.8159 5.66667 15.6667 5.51741 15.6667 5.33333V2H4.33333C4.14926 2 4 2.14926 4 2.33333V21.6667C4 21.7551 4.03512 21.8399 4.09762 21.9024C4.16012 21.9649 4.24494 22 4.33333 22H19C19.0884 22 19.1732 21.9649 19.2357 21.9024C19.2982 21.8399 19.3333 21.7551 19.3333 21.6667V5.66667H16ZM16 19.6667H7.33333C7.14926 19.6667 7 19.5174 7 19.3333C7 19.1493 7.14926 19 7.33333 19H16C16.1841 19 16.3333 19.1493 16.3333 19.3333C16.3333 19.5174 16.1841 19.6667 16 19.6667ZM16 18H7.33333C7.14926 18 7 17.8507 7 17.6667C7 17.4826 7.14926 17.3333 7.33333 17.3333H16C16.1841 17.3333 16.3333 17.4826 16.3333 17.6667C16.3333 17.8507 16.1841 18 16 18ZM16 16.3333H7.33333C7.14926 16.3333 7 16.1841 7 16C7 15.8159 7.14926 15.6667 7.33333 15.6667H16C16.1841 15.6667 16.3333 15.8159 16.3333 16C16.3333 16.1841 16.1841 16.3333 16 16.3333ZM14.9667 12.9667C13.9744 13.9586 12.5885 14.4514 11.1927 14.3086C9.79703 14.1659 8.53958 13.4029 7.76861 12.2305C6.99764 11.0583 6.79493 9.60149 7.21669 8.26328C7.27189 8.08738 7.45925 7.98962 7.63497 8.04482C7.81086 8.10018 7.90863 8.28738 7.85328 8.46326C7.47351 9.66608 7.68349 10.9777 8.41979 12.0021C9.1561 13.0264 10.3324 13.6433 11.5936 13.6667C12.8549 13.6901 14.0532 13.1171 14.8269 12.1209C15.6007 11.1246 15.8591 9.82162 15.5242 8.60539C15.1893 7.38917 14.3003 6.40227 13.1256 5.94261C11.9509 5.4828 10.6281 5.60407 9.55667 6.26984C9.74074 6.26984 9.89 6.4191 9.89 6.60318C9.89 6.7874 9.74074 6.93651 9.55667 6.93651H8.60326C8.41918 6.93651 8.26992 6.7874 8.26992 6.60318V5.66657C8.26992 5.48249 8.41918 5.33323 8.60326 5.33323C8.78748 5.33323 8.93659 5.48249 8.93659 5.66657V5.8932C10.2162 4.98932 11.8638 4.78783 13.3236 5.35659C14.7833 5.92536 15.8602 7.18859 16.1909 8.71983C16.5216 10.2512 16.0617 11.8462 14.9668 12.9667L14.9667 12.9667ZM12.9333 10.8C13.0437 10.9473 13.014 11.1563 12.8667 11.2667C12.7193 11.3771 12.5104 11.3473 12.4 11.2L11.4 9.86667C11.3567 9.80893 11.3333 9.73884 11.3333 9.66667V7.33333C11.3333 7.14926 11.4826 7 11.6667 7C11.8507 7 12 7.14926 12 7.33333V9.55669L12.9333 10.8Z" fill="#F2F2F2"/>
</svg>
