<svg width="26" height="26" viewBox="0 0 26 26" fill="none" xmlns="http://www.w3.org/2000/svg">
<path d="M13.1455 4.23552C13.059 4.16629 12.9436 4.16629 12.857 4.23552L3.85705 11.4355C3.80512 11.4817 3.77051 11.5451 3.77051 11.6144V24.8836C3.77051 24.9471 3.82243 24.999 3.88589 24.999H10.1167C10.1801 24.999 10.232 24.9471 10.232 24.8836V16.8067C10.232 16.7432 10.284 16.6913 10.3474 16.6913H15.6551C15.7186 16.6913 15.7705 16.7432 15.7705 16.8067V24.8836C15.7705 24.9471 15.8224 24.999 15.8859 24.999H22.1167C22.1801 24.999 22.232 24.9471 22.232 24.8836V11.6144C22.232 11.5451 22.1974 11.4759 22.1455 11.4355L13.1455 4.23552Z" fill="#0061AF"/>
<path d="M24.6953 10.0115L13.7914 1.27692C13.5722 1.09808 13.2895 1 13.001 1C12.7126 1 12.4299 1.09808 12.2106 1.27692L7.46256 5.13654V2.70192C7.46256 2.63846 7.41064 2.58654 7.34718 2.58654H3.88564C3.82218 2.58654 3.77025 2.63846 3.77025 2.70192V8.02115L1.30679 10.0462C1.12795 10.1904 1.01256 10.4038 1.00102 10.6346C0.989484 10.8654 1.07602 11.0904 1.23756 11.2519C1.38756 11.4019 1.58948 11.4885 1.80872 11.4885C1.99333 11.4885 2.17218 11.425 2.31641 11.3096L12.926 2.77115C12.9549 2.74808 12.9779 2.74808 13.001 2.74808C13.0241 2.74808 13.0472 2.75385 13.076 2.77115L23.6856 11.275C23.8299 11.3904 24.0087 11.4538 24.1933 11.4538C24.4068 11.4538 24.6087 11.3731 24.7645 11.2173C24.9318 11.0558 25.0183 10.8308 25.0068 10.6C24.9895 10.3692 24.8799 10.1558 24.6953 10.0115Z" fill="#0061AF"/>
</svg>
