<svg width="24" height="24" viewBox="0 0 24 24" fill="none" xmlns="http://www.w3.org/2000/svg">
<path fill-rule="evenodd" clip-rule="evenodd" d="M12 2C17.5229 2 22 6.47714 22 12C22 17.5229 17.5229 22 12 22C6.47714 22 2 17.5229 2 12C2 6.47714 6.47714 2 12 2ZM12 10C11.2636 10 10.6667 10.5969 10.6667 11.3333V16.6667C10.6667 17.4031 11.2636 18 12 18C12.7364 18 13.3333 17.4031 13.3333 16.6667V11.3333C13.3333 10.5969 12.7364 10 12 10ZM12 6C11.2636 6 10.6667 6.5969 10.6667 7.33333C10.6667 8.06976 11.2636 8.66667 12 8.66667C12.7364 8.66667 13.3333 8.06976 13.3333 7.33333C13.3333 6.5969 12.7364 6 12 6Z" fill="#979797"/>
</svg>
