<svg width="12" height="12" viewBox="0 0 12 12" fill="none" xmlns="http://www.w3.org/2000/svg">
<path d="M6 0.807692C7.3875 0.807692 8.69135 1.34712 9.67212 2.32788C10.6529 3.30865 11.1923 4.6125 11.1923 6C11.1923 7.3875 10.6529 8.69135 9.67212 9.67212C8.69135 10.6529 7.3875 11.1923 6 11.1923C4.6125 11.1923 3.30865 10.6529 2.32788 9.67212C1.34712 8.69135 0.807692 7.3875 0.807692 6C0.807692 4.6125 1.34712 3.30865 2.32788 2.32788C3.30865 1.34712 4.6125 0.807692 6 0.807692ZM6 0C2.68558 0 0 2.68558 0 6C0 9.31442 2.68558 12 6 12C9.31442 12 12 9.31442 12 6C12 2.68558 9.31442 0 6 0Z" fill="#4BD763"/>
<path d="M9.10081 2.89889C8.27293 2.071 7.171 1.61523 5.99985 1.61523C4.8287 1.61523 3.72677 2.071 2.89889 2.89889C2.071 3.72677 1.61523 4.8287 1.61523 5.99985C1.61523 7.171 2.071 8.27293 2.89889 9.10081C3.72677 9.9287 4.8287 10.3845 5.99985 10.3845C7.171 10.3845 8.27293 9.9287 9.10081 9.10081C9.9287 8.27293 10.3845 7.171 10.3845 5.99985C10.3845 4.8287 9.9287 3.72677 9.10081 2.89889Z" fill="#4BD763"/>
</svg>
