<svg width="24" height="24" viewBox="0 0 24 24" fill="none" xmlns="http://www.w3.org/2000/svg">
<path fill-rule="evenodd" clip-rule="evenodd" d="M11.6667 2C10.7826 2 9.93476 2.35119 9.30964 2.97631C8.68452 3.60143 8.33333 4.44928 8.33333 5.33333V12C8.33333 12.8841 8.68452 13.7319 9.30964 14.357C9.93476 14.9821 10.7826 15.3333 11.6667 15.3333C12.5507 15.3333 13.3986 14.9821 14.0237 14.357C14.6488 13.7319 15 12.8841 15 12V5.33333C15 4.44928 14.6488 3.60143 14.0237 2.97631C13.3986 2.35119 12.5507 2 11.6667 2ZM10.4882 4.15482C10.8007 3.84226 11.2246 3.66667 11.6667 3.66667C12.1087 3.66667 12.5326 3.84226 12.8452 4.15482C13.1577 4.46738 13.3333 4.89131 13.3333 5.33333V12C13.3333 12.442 13.1577 12.866 12.8452 13.1785C12.5326 13.4911 12.1087 13.6667 11.6667 13.6667C11.2246 13.6667 10.8007 13.4911 10.4882 13.1785C10.1756 12.866 10 12.442 10 12V5.33333C10 4.89131 10.1756 4.46738 10.4882 4.15482ZM6.66667 10.3333C6.66667 9.8731 6.29357 9.5 5.83333 9.5C5.3731 9.5 5 9.8731 5 10.3333V12C5 13.7681 5.70238 15.4638 6.95262 16.714C8.00481 17.7662 9.3725 18.4304 10.8333 18.6144V20.3333H8.33333C7.8731 20.3333 7.5 20.7064 7.5 21.1667C7.5 21.6269 7.8731 22 8.33333 22H11.6667H15C15.4602 22 15.8333 21.6269 15.8333 21.1667C15.8333 20.7064 15.4602 20.3333 15 20.3333H12.5V18.6144C13.9608 18.4304 15.3285 17.7662 16.3807 16.714C17.631 15.4638 18.3333 13.7681 18.3333 12V10.3333C18.3333 9.8731 17.9602 9.5 17.5 9.5C17.0398 9.5 16.6667 9.8731 16.6667 10.3333V12C16.6667 13.3261 16.1399 14.5979 15.2022 15.5355C14.2645 16.4732 12.9927 17 11.6667 17C10.3406 17 9.06881 16.4732 8.13113 15.5355C7.19345 14.5979 6.66667 13.3261 6.66667 12V10.3333Z" fill="#F2F2F2"/>
</svg>
