<svg width="24" height="24" viewBox="0 0 24 24" fill="none" xmlns="http://www.w3.org/2000/svg">
<path d="M18.2645 17.9345C17.2017 17.6951 13.9098 17.9345 13.9098 17.9345C13.9098 19.1159 15.2129 19.2732 15.2129 19.2732L16.3197 19.2704V19.2732C16.5953 19.2732 16.8211 19.499 16.8211 19.7746C16.8211 20.0529 16.5981 20.2787 16.3197 20.2787V20.2815L14.2542 20.287L9.30487 19.8326L8.28565 19.7392C8.10631 19.7392 7.94668 19.8109 7.83123 19.9291C7.71532 20.0451 7.64404 20.2047 7.64404 20.3836C7.64404 20.7387 7.93329 21.0253 8.28857 21.0253C8.28857 21.0253 13.1748 21.8763 14.8217 21.9564C15.8931 22.0112 18.08 22.069 19.1129 21.7747C19.3718 21.7002 19.9616 21.3643 20.3112 21.1546V18.7033H19.8815C19.8814 18.7029 18.7028 18.0339 18.2649 17.9345L18.2645 17.9345Z" fill="#979797"/>
<path d="M9.39031 18.5528C9.07689 18.5528 8.80135 18.7838 8.75717 19.1059C8.73747 19.2518 8.76518 19.3923 8.83414 19.511L13.2329 19.9159L9.48127 18.558C9.45079 18.5527 9.42077 18.5527 9.39014 18.5527L9.39031 18.5528Z" fill="#979797"/>
<path d="M20.5864 17.9336H21.9999V21.569H20.5864V17.9336Z" fill="#979797"/>
<path d="M10.0899 6.06619C10.0899 4.88484 8.78687 4.72752 8.78687 4.72752L7.68004 4.73029L7.67989 4.72752C7.40433 4.72752 7.17849 4.50169 7.17849 4.22613C7.17849 3.9478 7.40155 3.72197 7.67989 3.72197V3.71936L9.74544 3.71381L14.6948 4.16823L15.714 4.26168C15.8933 4.26168 16.053 4.18994 16.1684 4.07171C16.2843 3.9558 16.3556 3.79616 16.3556 3.6173C16.3556 3.26216 16.0663 2.97553 15.7111 2.97553C15.7111 2.97553 10.8248 2.12454 9.17792 2.0445C8.10648 1.9897 5.91963 1.93182 4.88673 2.22615C4.62781 2.30066 4.03807 2.63655 3.68848 2.84621V5.29753H4.11811C4.11811 5.29753 5.29666 5.96657 5.73464 6.06584C6.79761 6.30552 10.0897 6.06615 10.0897 6.06615L10.0899 6.06619Z" fill="#979797"/>
<path d="M14.6093 5.44708C14.9227 5.44708 15.1983 5.21602 15.2424 4.89399C15.2621 4.74805 15.2344 4.60751 15.1655 4.48883L10.7671 4.08398L14.5187 5.44188C14.5488 5.44712 14.5788 5.44712 14.6094 5.44712L14.6093 5.44708Z" fill="#979797"/>
<path d="M2 2.43164H3.41346V6.06707H2V2.43164Z" fill="#979797"/>
<path d="M9.43032 10.8917L14.756 7.35629L11.9994 5.52734L6.67334 9.06272L9.43032 10.8917Z" fill="#979797"/>
<path d="M15.1465 7.64031L9.83936 11.1624L11.9997 12.5966L17.3258 9.0632L15.1626 7.62695C15.1582 7.63388 15.152 7.63619 15.1465 7.64035L15.1465 7.64031Z" fill="#979797"/>
<path d="M11.7743 12.9904L6.46875 9.4707V12.39L7.3288 12.9656C7.43256 13.0356 7.45949 13.1758 7.39053 13.2798C7.34743 13.3453 7.27508 13.379 7.20257 13.379C7.15947 13.379 7.1139 13.3677 7.07572 13.3407L6.46891 12.9345V13.3655L7.89376 14.323C7.99752 14.3931 8.02477 14.533 7.95442 14.6367C7.91162 14.6999 7.83927 14.7363 7.76723 14.7363C7.72443 14.7363 7.67902 14.7229 7.641 14.6977L6.46923 13.9121V14.9121L11.7748 18.4724L11.7746 12.9903L11.7743 12.9904Z" fill="#979797"/>
<path d="M17.5311 9.4707L12.2256 12.9904V18.4721L17.5311 14.9118V9.4707Z" fill="#979797"/>
</svg>
