<svg width="26" height="26" viewBox="0 0 26 26" fill="none" xmlns="http://www.w3.org/2000/svg">
<path d="M12.5824 25C14.4479 25 15.4676 23.6803 15.4676 21.8208H9.69109C9.69109 23.6803 10.7108 25 12.5824 25ZM21.9459 18.7736C21.0222 17.5559 19.2047 16.8421 19.2047 11.3895C19.2047 5.79293 16.7333 3.5435 14.4299 3.00364C14.2139 2.94966 14.058 2.87767 14.058 2.64973V2.47578C14.058 1.67198 13.3981 0.994157 12.5943 1.00016C11.7906 0.988159 11.1307 1.67198 11.1307 2.47578V2.64973C11.1307 2.87168 10.9748 2.94966 10.7588 3.00364C8.44941 3.5495 5.98404 5.79293 5.98404 11.3895C5.98404 16.8421 4.16651 17.5499 3.24275 18.7736C2.6489 19.5594 3.21275 20.6811 4.1965 20.6811H20.9982C21.9759 20.6811 22.5398 19.5534 21.9459 18.7736Z" fill="#BCBCBC"/>
</svg>
