<svg width="24" height="24" viewBox="0 0 24 24" fill="none" xmlns="http://www.w3.org/2000/svg">
<path d="M10.5714 13.4857C12.5285 13.4857 14.2714 11.8285 15.5714 10.1285C14.2714 8.44281 12.5285 6.8 10.5714 6.8C8.62867 6.8 6.88582 8.44281 5.57143 10.1285C6.88582 11.8285 8.62867 13.4857 10.5714 13.4857ZM10.5714 11.8C9.62857 11.8 8.91429 11.0857 8.91429 10.1429C8.91429 9.2 9.62857 8.48571 10.5714 8.48571C11.5143 8.48571 12.2286 9.2 12.2286 10.1429C12.2286 11.0857 11.5143 11.8 10.5714 11.8ZM2.71429 17.2857H21.2857C22 17.2857 22 17.2857 22 16.5714V3.71429C22 3 22 3 21.2857 3H2.71429C2 3 2 3 2 3.71429V16.5714C2 17.2857 2 17.2857 2.71429 17.2857ZM4.14286 20.1429H19.8571C20.5714 20.1429 20.5714 20.1429 20.5714 19.4286V18.7143H3.42857V19.4286C3.42857 20.1429 3.42857 20.1429 4.14286 20.1429ZM3.78571 14.8286C3.28567 12.3001 3.25719 7.97143 3.78571 5.44286C3.85706 5.10006 4.10001 4.85714 4.45714 4.81429C7.02847 4.49999 14.1429 4.3001 16.6857 4.81429C17.0429 4.88563 17.2858 5.10008 17.3571 5.45724C17.8572 7.98576 17.8572 12.3001 17.3571 14.8287C17.2858 15.1858 17.0428 15.4288 16.6857 15.4716C14.1144 15.7859 7 15.9858 4.45714 15.4716C4.1 15.4003 3.85704 15.1858 3.78571 14.8287V14.8286ZM19.8571 8.71429C19.4572 8.71429 19.1429 8.39999 19.1429 8C19.1429 7.60001 19.4572 7.28571 19.8571 7.28571C20.2571 7.28571 20.5714 7.60001 20.5714 8C20.5714 8.39999 20.2571 8.71429 19.8571 8.71429ZM19.8571 5.85714C19.4572 5.85714 19.1429 5.54285 19.1429 5.14286C19.1429 4.74287 19.4572 4.42857 19.8571 4.42857C20.2571 4.42857 20.5714 4.74287 20.5714 5.14286C20.5714 5.54285 20.2571 5.85714 19.8571 5.85714Z" fill="#979797"/>
</svg>
