<svg width="24" height="24" viewBox="0 0 24 24" fill="none" xmlns="http://www.w3.org/2000/svg">
<path d="M9.26121 8.09824L11.6673 9.77268V9.77251C11.8708 9.91442 12.1411 9.91442 12.3446 9.77251L14.7507 8.09825C14.9098 7.98773 15.0046 7.80635 15.0041 7.61275V2.59206C15.0041 2.43513 14.9419 2.28447 14.8308 2.17346C14.7198 2.06245 14.5692 2 14.4121 2H9.59988C9.27279 2 9.00781 2.26514 9.00781 2.59206V7.61275C9.00732 7.80636 9.10214 7.98775 9.26123 8.09825L9.26121 8.09824Z" fill="#F2F2F2"/>
<path d="M14.7503 15.9135L12.3442 14.2392C12.1406 14.0973 11.8704 14.0973 11.6668 14.2392L9.26073 15.9135C9.10495 16.0215 9.01079 16.1978 9.00732 16.3873V21.408C9.00732 21.5649 9.0696 21.7156 9.18062 21.8266C9.29163 21.9376 9.44229 22 9.59939 22H14.4116C14.5687 22 14.7193 21.9376 14.8304 21.8266C14.9414 21.7156 15.0037 21.5649 15.0037 21.408V16.3991C15.0041 16.2055 14.9093 16.0241 14.7502 15.9136L14.7503 15.9135Z" fill="#F2F2F2"/>
<path d="M9.77251 11.6673L8.09825 9.26123C7.98773 9.10214 7.80635 9.00732 7.61275 9.00781H2.59206C2.26514 9.00781 2 9.27279 2 9.59988V14.4121C2 14.5692 2.06245 14.7198 2.17346 14.8308C2.28447 14.9419 2.43513 15.0041 2.59206 15.0041H7.61275C7.80636 15.0046 7.98775 14.9098 8.09825 14.7507L9.77268 12.3446H9.77252C9.91442 12.1411 9.91442 11.8709 9.77252 11.6673L9.77251 11.6673Z" fill="#F2F2F2"/>
<path d="M21.4197 9.00781H16.399C16.2097 9.01128 16.0334 9.10544 15.9254 9.26122L14.2392 11.6673C14.0973 11.8708 14.0973 12.1411 14.2392 12.3446L15.9135 14.7507C16.0215 14.9065 16.1978 15.0007 16.3873 15.0042H21.408C21.5649 15.0042 21.7156 14.9419 21.8266 14.8309C21.9376 14.7199 22 14.5692 22 14.4121V9.59989C22 9.27743 21.7422 9.01426 21.4199 9.00783L21.4197 9.00781Z" fill="#F2F2F2"/>
</svg>
