<svg width="18" height="18" viewBox="0 0 18 18" fill="none" xmlns="http://www.w3.org/2000/svg">
<path fill-rule="evenodd" clip-rule="evenodd" d="M0 16.1849V1.81522C0 0.814567 0.814567 0 1.8151 0H16.1848C17.1854 0 18 0.814567 18 1.81522V16.1849C18 17.1854 17.1854 18 16.1848 18H1.8151C0.814567 18 0 17.1854 0 16.1849ZM16.8735 16.5585V14.9458C16.8735 14.7702 16.731 14.6277 16.5554 14.6277H16.0678C15.8924 14.6277 15.7499 14.7702 15.7499 14.9458V16.5585C15.7499 16.7339 15.8924 16.8764 16.0678 16.8764H16.5554C16.731 16.8764 16.8735 16.7339 16.8735 16.5585ZM2.2489 16.557V14.9443C2.2489 14.7687 2.10638 14.6262 1.93084 14.6262H1.44036C1.26482 14.6262 1.1223 14.7687 1.1223 14.9443V16.557C1.1223 16.7324 1.26482 16.8749 1.44036 16.8749H1.93084C2.10638 16.8749 2.2489 16.7324 2.2489 16.557ZM6.36674 13.4547L13.188 9.46444C13.5975 9.22586 13.5975 8.83584 13.188 8.59738L6.36995 4.60684C5.96048 4.36838 5.62745 4.55887 5.62745 5.0329L5.62444 13.0284C5.62444 13.5025 5.95744 13.693 6.36694 13.4545L6.36674 13.4547ZM16.8751 13.1832V11.5705C16.8751 11.395 16.7326 11.2524 16.557 11.2524H16.0695C15.894 11.2524 15.7515 11.395 15.7515 11.5705V13.1832C15.7515 13.3586 15.894 13.5011 16.0695 13.5011H16.557C16.7326 13.5011 16.8751 13.3586 16.8751 13.1832ZM2.2489 13.1817V11.569C2.2489 11.3935 2.10638 11.2509 1.93084 11.2509H1.44325C1.26783 11.2509 1.12531 11.3935 1.12531 11.569V13.1817C1.12531 13.3571 1.26783 13.4996 1.44325 13.4996H1.93084C2.10638 13.4996 2.2489 13.3571 2.2489 13.1817ZM16.8751 9.80801V8.19533C16.8751 8.01979 16.7326 7.87727 16.557 7.87727H16.0695C15.894 7.87727 15.7515 8.01979 15.7515 8.19533V9.80801C15.7515 9.98343 15.894 10.1259 16.0695 10.1259H16.557C16.7326 10.1259 16.8751 9.98343 16.8751 9.80801ZM2.2489 9.8065V8.19382C2.2489 8.01828 2.10638 7.87576 1.93084 7.87576H1.44325C1.26783 7.87576 1.12531 8.01828 1.12531 8.19382V9.8065C1.12531 9.98192 1.26783 10.1244 1.44325 10.1244H1.93084C2.10638 10.1244 2.2489 9.98192 2.2489 9.8065ZM16.8751 6.43283V4.82016C16.8751 4.64461 16.7326 4.50209 16.557 4.50209H16.0695C15.894 4.50209 15.7515 4.64461 15.7515 4.82016V6.43283C15.7515 6.60825 15.894 6.75077 16.0695 6.75077H16.557C16.7326 6.75077 16.8751 6.60825 16.8751 6.43283ZM2.2489 6.43132V4.81865C2.2489 4.64311 2.10638 4.50058 1.93084 4.50058H1.44325C1.26783 4.50058 1.12531 4.64311 1.12531 4.81865V6.43132C1.12531 6.60674 1.26783 6.74926 1.44325 6.74926H1.93084C2.10638 6.74926 2.2489 6.60674 2.2489 6.43132ZM16.8751 3.05765V1.44498C16.8751 1.26944 16.7326 1.12691 16.557 1.12691H16.0695C15.894 1.12691 15.7515 1.26944 15.7515 1.44498V3.05765C15.7515 3.23307 15.894 3.37559 16.0695 3.37559H16.557C16.7326 3.37559 16.8751 3.23307 16.8751 3.05765ZM2.2489 3.05615V1.44347C2.2489 1.26793 2.10638 1.12541 1.93084 1.12541H1.44325C1.26783 1.12541 1.12531 1.26793 1.12531 1.44347V3.05615C1.12531 3.23156 1.26783 3.37409 1.44325 3.37409H1.93084C2.10638 3.37409 2.2489 3.23156 2.2489 3.05615Z" fill="#0061AF"/>
</svg>
