<svg width="26" height="26" viewBox="0 0 26 26" fill="none" xmlns="http://www.w3.org/2000/svg">
<path d="M13 1C6.79808 1 1.69808 5.70192 1.06923 11.7365C1.02308 12.1519 1 12.5731 1 13C1 13.4269 1.02308 13.8481 1.06923 14.2635C1.69808 20.2981 6.79808 25 13 25C19.6288 25 25 19.6288 25 13C25 6.37115 19.6288 1 13 1ZM20.8346 19.8135C19.525 19.3173 17.4019 18.5904 16.0808 18.1981C15.9423 18.1577 15.925 18.1462 15.925 17.5808C15.925 17.1135 16.1154 16.6404 16.3058 16.2365C16.5135 15.8038 16.75 15.0712 16.8365 14.4135C17.0788 14.1308 17.4135 13.5769 17.6212 12.5154C17.8058 11.5808 17.7192 11.2404 17.5981 10.9231C17.5865 10.8885 17.5692 10.8538 17.5635 10.825C17.5173 10.6058 17.5808 9.46923 17.7423 8.58654C17.8519 7.98077 17.7135 6.69423 16.8827 5.62692C16.3577 4.95192 15.3481 4.12692 13.5077 4.01154H12.4981C10.6865 4.12692 9.68269 4.95192 9.15192 5.62692C8.31538 6.69423 8.17692 7.98077 8.28654 8.58654C8.44808 9.46923 8.51154 10.6058 8.46538 10.825C8.45385 10.8654 8.44231 10.8942 8.43077 10.9288C8.30962 11.2462 8.21731 11.5865 8.40769 12.5212C8.62115 13.5827 8.95 14.1365 9.19231 14.4192C9.27885 15.0769 9.52115 15.8038 9.72308 16.2423C9.87308 16.5596 9.94231 16.9923 9.94231 17.6038C9.94231 18.175 9.91923 18.1808 9.79231 18.2212C8.425 18.625 6.39423 19.3404 5.17692 19.825C3.51538 17.9269 2.61538 15.5327 2.61538 13C2.61538 10.225 3.69423 7.61731 5.65577 5.65577C7.61731 3.69423 10.225 2.61538 13 2.61538C15.775 2.61538 18.3827 3.69423 20.3442 5.65577C22.3058 7.61731 23.3846 10.225 23.3846 13C23.3846 15.5327 22.4846 17.9269 20.8346 19.8135Z" fill="#BCBCBC"/>
</svg>
