<svg width="24" height="24" viewBox="0 0 24 24" fill="none" xmlns="http://www.w3.org/2000/svg">
<path d="M12.1126 2C8.18514 2 5 5.1851 5 9.11256C5 13.04 12.328 22 12.328 22C12.328 22 19.2247 13.0403 19.2247 9.11256C19.2247 5.18514 16.0396 2 12.1122 2H12.1126ZM12.1126 3.44311C15.2437 3.44311 17.7819 5.98135 17.7819 9.11244C17.7819 12.2435 15.2436 14.7818 12.1126 14.7818C8.98147 14.7818 6.44323 12.2435 6.44323 9.11244C6.44323 5.98135 8.98147 3.44311 12.1126 3.44311Z" fill="#979797"/>
<path d="M12.1103 5.83984C11.6571 5.84232 11.2211 6.08972 10.949 6.58713C10.7016 7.04284 10.5595 7.69449 10.5178 8.62066H10.0596V12.3889H14.1658V8.62066H13.7396C13.7028 7.73385 13.5534 7.08208 13.2986 6.61907C13.0217 6.1119 12.5807 5.83754 12.1103 5.84V5.83984ZM12.1153 6.36174C12.3971 6.35926 12.6273 6.48187 12.8405 6.86891C13.0342 7.22171 13.1786 7.79508 13.2154 8.62066H11.0397C11.0839 7.75342 11.2258 7.17521 11.4097 6.83701C11.6131 6.46453 11.8212 6.36408 12.1153 6.36174H12.1153Z" fill="#979797"/>
</svg>
