<svg width="24" height="24" viewBox="0 0 24 24" fill="none" xmlns="http://www.w3.org/2000/svg">
<path d="M4.14294 10.5715H8.42853C8.99678 10.5715 9.54185 10.3455 9.94369 9.94369C10.3455 9.54186 10.5715 8.99676 10.5715 8.42853V4.14294C10.5715 3.5747 10.3455 3.02963 9.94369 2.62778C9.54186 2.2257 8.99676 2 8.42853 2H4.14294C3.5747 2 3.02963 2.2257 2.62779 2.62778C2.22571 3.02962 2 3.57471 2 4.14294V8.42853C2 8.99678 2.22571 9.54185 2.62779 9.94369C3.02962 10.3455 3.57471 10.5715 4.14294 10.5715ZM4.85715 4.85714H7.71432V7.71431H4.85715V4.85714Z" fill="#979797"/>
<path d="M2 19.8582C2 20.4265 2.2257 20.9715 2.62778 21.3734C3.02962 21.7755 3.57471 22.0012 4.14294 22.0012H8.42853C8.99678 22.0012 9.54185 21.7755 9.94369 21.3734C10.3455 20.9715 10.5715 20.4265 10.5715 19.8582V15.5726C10.5715 15.0044 10.3455 14.4593 9.94369 14.0575C9.54186 13.6556 8.99676 13.4297 8.42853 13.4297H4.14294C3.5747 13.4297 3.02963 13.6556 2.62778 14.0575C2.2257 14.4593 2 15.0044 2 15.5726V19.8582ZM4.85717 16.2868H7.71433V19.144H4.85717V16.2868Z" fill="#979797"/>
<path d="M19.8572 10.5715C20.4255 10.5715 20.9706 10.3455 21.3724 9.94369C21.7745 9.54186 22.0002 8.99676 22.0002 8.42853V4.14294C22.0002 3.5747 21.7745 3.02963 21.3724 2.62778C20.9706 2.2257 20.4255 2 19.8572 2H15.5717C15.0034 2 14.4583 2.2257 14.0565 2.62778C13.6547 3.02962 13.4287 3.57471 13.4287 4.14294V8.42853C13.4287 8.99678 13.6547 9.54185 14.0565 9.94369C14.4583 10.3455 15.0034 10.5715 15.5717 10.5715H19.8572ZM16.2859 4.85714H19.143V7.71431H16.2859V4.85714Z" fill="#979797"/>
<path d="M16.2852 16.2852H19.1423V19.1423H16.2852V16.2852Z" fill="#979797"/>
<path d="M19.1426 13.4297H21.9997V16.2869H19.1426V13.4297Z" fill="#979797"/>
<path d="M13.4287 13.4297H16.2859V16.2869H13.4287V13.4297Z" fill="#979797"/>
<path d="M19.1426 19.1445H21.9997V22.0017H19.1426V19.1445Z" fill="#979797"/>
<path d="M13.4287 19.1445H16.2859V22.0017H13.4287V19.1445Z" fill="#979797"/>
</svg>
