<svg width="18" height="20" viewBox="0 0 18 20" fill="none" xmlns="http://www.w3.org/2000/svg">
<path d="M15.0538 6.14018H10.2671L14.0869 1.06668C14.2299 0.8762 14.2603 0.623821 14.1667 0.404774C14.0731 0.185727 13.8698 0.0333471 13.6333 0.00477579C13.3969 -0.0236466 13.1633 0.076204 13.0202 0.266679L10.1203 4.15314L8.93367 5.69987L4.86017 0.266756C4.75407 0.12524 4.59618 0.0317852 4.4212 0.00678718C4.24605 -0.0182127 4.06837 0.0273228 3.92684 0.133423C3.78531 0.239523 3.69187 0.39741 3.66687 0.572392C3.64187 0.747542 3.68741 0.925217 3.79351 1.06675L7.6133 6.14025H2.66665C1.95938 6.14025 1.2811 6.4212 0.780949 6.9212C0.280951 7.42135 0 8.09963 0 8.80691V17.3333C0 18.0406 0.280951 18.7189 0.780949 19.2189C1.2811 19.719 1.95938 20 2.66665 20H15.0533C15.7605 20 16.4388 19.719 16.939 19.2189C17.439 18.7189 17.7199 18.0406 17.7199 17.3333V8.80691C17.7199 8.09963 17.439 7.42135 16.939 6.9212C16.4388 6.4212 15.7605 6.14025 15.0533 6.14025L15.0538 6.14018ZM6.78028 12.9801C6.6032 12.981 6.43281 12.9115 6.30706 12.7867C6.18073 12.6615 6.10974 12.4912 6.10974 12.3135C6.10974 12.1356 6.18073 11.9653 6.30706 11.8401L7.92047 10.2334H7.92032C8.04115 10.0923 8.21541 10.0081 8.40096 10.0008C8.58653 9.99368 8.76674 10.0644 8.89814 10.1956C9.02939 10.327 9.10008 10.5072 9.09293 10.6928C9.08564 10.8784 9.00142 11.0526 8.86034 11.1734L7.25365 12.7868V12.7867C7.1279 12.9115 6.95752 12.981 6.78028 12.9801L6.78028 12.9801ZM13.2401 11.8667L8.80656 16.3067H8.80671C8.68141 16.4329 8.51102 16.5039 8.33334 16.5039C8.15551 16.5039 7.98513 16.4329 7.85997 16.3067C7.73378 16.1816 7.6628 16.0112 7.6628 15.8334C7.6628 15.6555 7.73378 15.4851 7.85997 15.36L12.2999 10.9265C12.4208 10.7854 12.5949 10.7012 12.7806 10.694C12.9662 10.6867 13.1464 10.7574 13.2776 10.8887C13.409 11.0201 13.4796 11.2003 13.4724 11.3859C13.4653 11.5714 13.381 11.7457 13.24 11.8665L13.2401 11.8667Z" fill="#979797"/>
</svg>
