<?xml version="1.0" encoding="utf-8"?>
<!-- Generator: Adobe Illustrator 26.3.1, SVG Export Plug-In . SVG Version: 6.00 Build 0)  -->
<svg version="1.1" id="Layer_1" xmlns="http://www.w3.org/2000/svg" xmlns:xlink="http://www.w3.org/1999/xlink" x="0px" y="0px"
	 viewBox="0 0 18 18" style="enable-background:new 0 0 18 18;" xml:space="preserve">
<style type="text/css">
	.st0{fill:#FFFFFF;}
	.st1{fill:#FFFFFF;stroke:#FFFFFF;stroke-width:0.4768;stroke-miterlimit:10;}
</style>
<g>
	<path class="st0" d="M1.9,5.2C0.9,5.2,0,6,0,7.1v3.8c0,1.1,0.9,1.9,1.9,1.9h3.9l3.4,2.5c0,0,0,0,0.1,0c0.2,0.1,0.4,0.2,0.6,0.2l0,0
		c0.3,0,0.6-0.1,0.8-0.3c0.2-0.2,0.4-0.5,0.4-0.9V3.7c0-0.7-0.5-1.2-1.2-1.2c-0.2,0-0.4,0.1-0.6,0.2c0,0,0,0,0,0L5.7,5.2L1.9,5.2
		L1.9,5.2z M6.2,6.3l3.6-2.5v10.3l-3.4-2.5c-0.1-0.1-0.2-0.1-0.4-0.1H1.9c-0.4,0-0.7-0.3-0.7-0.7V7.1c0-0.4,0.3-0.7,0.7-0.7h3.9
		C6,6.4,6.1,6.4,6.2,6.3z"/>
	<g>
		<path class="st1" d="M15.8,10.7l-3.1-3.1c-0.1-0.1-0.1-0.2,0-0.2l0,0c0.1-0.1,0.2-0.1,0.2,0l3.1,3.1c0.1,0.1,0.1,0.2,0,0.2l0,0
			C16,10.8,15.9,10.8,15.8,10.7z"/>
		<path class="st1" d="M16.1,7.6L13,10.7c-0.1,0.1-0.2,0.1-0.2,0l0,0c-0.1-0.1-0.1-0.2,0-0.2l3.1-3.1c0.1-0.1,0.2-0.1,0.2,0l0,0
			C16.1,7.4,16.1,7.5,16.1,7.6z"/>
	</g>
</g>
</svg>
