<svg width="19" height="20" viewBox="0 0 19 20" fill="none" xmlns="http://www.w3.org/2000/svg">
<path d="M0.532089 13.627L1.87612 15.9737C2.13208 16.4218 2.68682 16.5923 3.15619 16.3791L4.39352 15.8031C5.16152 16.4858 6.07877 17.0191 7.06018 17.3604L7.18815 18.7044C7.23086 19.2164 7.65749 19.6004 8.16956 19.6004H10.8789C11.391 19.6004 11.8176 19.2165 11.8603 18.7044L11.9883 17.3604C12.991 17.019 13.887 16.4857 14.655 15.8031L15.8923 16.3791C16.3616 16.5925 16.9162 16.4218 17.1724 15.9737L18.5164 13.627C18.7723 13.1789 18.6444 12.6243 18.239 12.3257L17.1296 11.5577C17.2363 11.0671 17.2791 10.5337 17.2791 10.0004C17.2791 9.46706 17.2151 8.95502 17.1296 8.4431L18.239 7.6751C18.6656 7.37645 18.7723 6.82185 18.5164 6.37378L17.1724 4.02704C16.9164 3.57897 16.3617 3.40845 15.8923 3.62167L14.655 4.19771C13.887 3.51497 12.9697 2.98164 11.9883 2.64042L11.8602 1.31764C11.7962 0.805722 11.3694 0.400391 10.8575 0.400391H8.16945C7.65741 0.400391 7.23075 0.784313 7.18804 1.29639L7.06007 2.64042C6.0574 2.98179 5.16141 3.51512 4.39341 4.19771L3.15608 3.62167C2.68675 3.40828 2.13212 3.57896 1.87601 4.02704L0.532131 6.37378C0.276178 6.82185 0.404155 7.37644 0.809509 7.6751L1.91888 8.4644C1.81218 8.95502 1.76947 9.48835 1.76947 10.0004C1.76947 10.5337 1.83346 11.0458 1.91888 11.5364L0.809509 12.3257C0.404139 12.6243 0.276178 13.1791 0.532131 13.627H0.532089ZM9.51339 4.77371C12.3935 4.77371 14.74 7.12044 14.74 10.0004C14.74 12.8804 12.3935 15.227 9.51339 15.227C6.63332 15.227 4.28674 12.8804 4.28674 10.0004C4.28674 7.12029 6.63332 4.77371 9.51339 4.77371Z" fill="#F2F2F2"/>
</svg>
