<svg width="24" height="24" viewBox="0 0 24 24" fill="none" xmlns="http://www.w3.org/2000/svg">
<path fill-rule="evenodd" clip-rule="evenodd" d="M5.21661 3.0001H17.3951L21 6.50741V18.6371C21 19.855 20.0013 20.8537 18.7835 20.8537H5.21652C3.99866 20.8537 3 19.855 3 18.6371V5.21652C3 3.99866 3.99866 3 5.21652 3L5.21661 3.0001ZM12.061 4.33977C11.3059 4.33977 10.7457 4.89993 10.7457 5.65502V10.6238H8.28561L12.0611 15.8607L15.8365 10.6238H13.3521V5.65502C13.3521 4.89993 12.7919 4.33977 12.0611 4.33977H12.061ZM6.28848 18.4914C5.97178 18.4914 5.70389 18.2236 5.70389 17.8826V14.3995C5.70389 13.9854 6.02059 13.6688 6.41027 13.6688C6.82435 13.6688 7.14093 13.9855 7.14093 14.3995C7.14093 15.3007 7.16534 16.2019 7.16534 17.1031H16.7378C16.7622 16.2019 16.7623 15.3007 16.7623 14.3995C16.7623 13.9854 17.1032 13.6688 17.4929 13.6688C17.8826 13.6688 18.2236 13.9855 18.2236 14.3995V17.8826C18.2236 18.2235 17.9313 18.4914 17.6147 18.4914H6.28848Z" fill="#979797"/>
</svg>
