<svg width="70" height="71" viewBox="0 0 70 71" fill="none" xmlns="http://www.w3.org/2000/svg">
<defs>
<linearGradient id="paint0_linear_969_13042" x1="18.8578" y1="42.8989" x2="29.3828" y2="48.5118" gradientUnits="userSpaceOnUse">
<stop stop-color="#6AB6F3"/>
<stop offset="1" stop-color="#0061AF"/>
</linearGradient>
<linearGradient id="paint1_linear_969_13042" x1="42.2953" y1="42.8989" x2="52.8203" y2="48.5118" gradientUnits="userSpaceOnUse">
<stop stop-color="#6AB6F3"/>
<stop offset="1" stop-color="#0061AF"/>
</linearGradient>
<linearGradient id="paint2_linear_969_13042" x1="18.8578" y1="19.4614" x2="29.3828" y2="25.0743" gradientUnits="userSpaceOnUse">
<stop stop-color="#6AB6F3"/>
<stop offset="1" stop-color="#0061AF"/>
</linearGradient>
<linearGradient id="paint3_linear_969_13042" x1="42.2953" y1="19.4614" x2="52.8203" y2="25.0743" gradientUnits="userSpaceOnUse">
<stop stop-color="#6AB6F3"/>
<stop offset="1" stop-color="#0061AF"/>
</linearGradient>
<linearGradient id="paint4_linear_969_13042" x1="19.518" y1="34.42" x2="20.3519" y2="40.6456" gradientUnits="userSpaceOnUse">
<stop stop-color="#6AB6F3"/>
<stop offset="1" stop-color="#0061AF"/>
</linearGradient>
<linearGradient id="paint5_linear_969_13042" x1="26.1532" y1="26.3548" x2="33.0639" y2="38.1482" gradientUnits="userSpaceOnUse">
<stop stop-color="#6AB6F3"/>
<stop offset="1" stop-color="#0061AF"/>
</linearGradient>
<linearGradient id="paint6_linear_969_13042" x1="26.1532" y1="39.2454" x2="33.0639" y2="51.0389" gradientUnits="userSpaceOnUse">
<stop stop-color="#6AB6F3"/>
<stop offset="1" stop-color="#0061AF"/>
</linearGradient>
</defs>
<g opacity="0.5">
<circle opacity="0.5" cx="35" cy="35.5" r="35" fill="#0061AF" fill-opacity="0.25"/>
<circle opacity="0.5" cx="35" cy="35.5" r="29.5312" fill="#0061AF" fill-opacity="0.25"/>
</g>
<path d="M26.7969 49.5625H22.1094C21.7986 49.5625 21.5004 49.439 21.2807 49.2193C21.061 48.9996 20.9375 48.7014 20.9375 48.3906V43.7031C20.9375 43.2843 20.7141 42.8975 20.3516 42.6882C19.989 42.4789 19.5422 42.4789 19.1797 42.6882C18.8171 42.8975 18.5938 43.2843 18.5938 43.7031V48.3906C18.5938 49.3232 18.9641 50.2172 19.6233 50.8767C20.2828 51.5358 21.1768 51.9062 22.1094 51.9062H26.7969C27.2157 51.9062 27.6025 51.6828 27.8118 51.3203C28.0211 50.9577 28.0211 50.511 27.8118 50.1484C27.6025 49.7859 27.2157 49.5625 26.7969 49.5625Z" fill="url(#paint0_linear_969_13042)"/>
<path d="M50.2344 42.5312C49.9236 42.5312 49.6254 42.6547 49.4057 42.8744C49.186 43.0942 49.0625 43.3924 49.0625 43.7031V48.3906C49.0625 48.7014 48.939 48.9996 48.7193 49.2193C48.4996 49.439 48.2014 49.5625 47.8906 49.5625H43.2031C42.7843 49.5625 42.3975 49.7859 42.1882 50.1484C41.9789 50.511 41.9789 50.9578 42.1882 51.3203C42.3975 51.6829 42.7843 51.9063 43.2031 51.9063H47.8906C48.8232 51.9063 49.7172 51.5359 50.3767 50.8767C51.0358 50.2172 51.4062 49.3232 51.4062 48.3906V43.7031C51.4062 43.3924 51.2828 43.0942 51.063 42.8744C50.8433 42.6547 50.5451 42.5312 50.2344 42.5312Z" fill="url(#paint1_linear_969_13042)"/>
<path d="M19.7656 28.4688C20.0764 28.4688 20.3746 28.3453 20.5943 28.1256C20.814 27.9058 20.9375 27.6076 20.9375 27.2969V22.6094C20.9375 22.2986 21.061 22.0004 21.2807 21.7807C21.5004 21.561 21.7986 21.4375 22.1094 21.4375H26.7969C27.2157 21.4375 27.6025 21.2141 27.8118 20.8516C28.0211 20.489 28.0211 20.0422 27.8118 19.6797C27.6025 19.3171 27.2157 19.0938 26.7969 19.0938H22.1094C21.1768 19.0938 20.2828 19.4641 19.6233 20.1233C18.9641 20.7828 18.5938 21.6768 18.5938 22.6094V27.2969C18.5938 27.6076 18.7172 27.9058 18.9369 28.1256C19.1567 28.3453 19.4549 28.4688 19.7656 28.4688Z" fill="url(#paint2_linear_969_13042)"/>
<path d="M47.8906 19.0938H43.2031C42.7843 19.0938 42.3975 19.3171 42.1882 19.6797C41.9789 20.0422 41.9789 20.489 42.1882 20.8516C42.3975 21.2141 42.7843 21.4375 43.2031 21.4375H47.8906C48.2014 21.4375 48.4996 21.561 48.7193 21.7807C48.939 22.0004 49.0625 22.2986 49.0625 22.6094V27.2969C49.0625 27.7157 49.2859 28.1025 49.6484 28.3118C50.011 28.5211 50.4578 28.5211 50.8203 28.3118C51.1828 28.1025 51.4062 27.7157 51.4062 27.2969V22.6094C51.4062 21.6768 51.0358 20.7828 50.3767 20.1233C49.7172 19.4641 48.8232 19.0938 47.8906 19.0938Z" fill="url(#paint3_linear_969_13042)"/>
<path d="M50.2344 34.3281H19.7656C19.3468 34.3281 18.96 34.5515 18.7507 34.9141C18.5414 35.2766 18.5414 35.7234 18.7507 36.0859C18.96 36.4485 19.3468 36.6719 19.7656 36.6719H50.2344C50.6531 36.6719 51.04 36.4485 51.2493 36.0859C51.4585 35.7234 51.4585 35.2766 51.2493 34.9141C51.04 34.5515 50.6531 34.3281 50.2344 34.3281Z" fill="url(#paint4_linear_969_13042)"/>
<path d="M25.625 29.6406V31.9844H27.9688V29.6406C27.9688 29.3299 28.0922 29.0317 28.3119 28.8119C28.5317 28.5922 28.8299 28.4688 29.1406 28.4688H40.8594C41.1701 28.4688 41.4683 28.5922 41.6881 28.8119C41.9078 29.0317 42.0313 29.3299 42.0313 29.6406V31.9844H44.375V29.6406C44.3721 28.7092 44.0009 27.8164 43.3423 27.1577C42.6836 26.4991 41.7908 26.1279 40.8594 26.125H29.1406C28.2092 26.1279 27.3164 26.4991 26.6577 27.1577C25.9991 27.8164 25.6279 28.7092 25.625 29.6406Z" fill="url(#paint5_linear_969_13042)"/>
<path d="M44.375 41.3594V39.0156H25.625V41.3594C25.6279 42.2908 25.9991 43.1836 26.6577 43.8423C27.3164 44.5009 28.2092 44.8721 29.1406 44.875H40.8594C41.7908 44.8721 42.6836 44.5009 43.3423 43.8423C44.0009 43.1836 44.3721 42.2908 44.375 41.3594Z" fill="url(#paint6_linear_969_13042)"/>

</svg>
