<svg width="24" height="24" viewBox="0 0 24 24" fill="none" xmlns="http://www.w3.org/2000/svg">
<path d="M17.1843 12.3691C15.886 12.3691 14.6863 12.8786 13.7825 13.7825C12.8786 14.6864 12.3691 15.9025 12.3691 17.1843C12.3691 19.8302 14.522 21.983 17.1679 21.9996C18.4497 21.9996 19.6658 21.4901 20.5697 20.5862C21.4736 19.6823 21.983 18.4662 21.983 17.1844C21.983 14.5221 19.8302 12.3691 17.1843 12.3691ZM19.5672 15.4587L17.6773 17.7102C17.398 18.0225 16.9214 18.0553 16.6256 17.776C16.3133 17.4966 16.2805 17.0364 16.5598 16.7242L16.6584 16.6256L19.0085 14.8507C19.1893 14.7028 19.4522 14.7357 19.6001 14.9164C19.7151 15.0808 19.6987 15.3108 19.5672 15.4588V15.4587Z" fill="#979797"/>
<path d="M11.8929 19.7818C11.0055 19.7161 10.0523 18.7793 9.37852 17.2345C9.23061 16.8894 9.08271 16.5114 8.96765 16.1006H11.3834C11.482 15.5747 11.6464 15.0653 11.8765 14.5887H8.62252C8.58965 14.4243 8.57321 14.26 8.54035 14.0956C8.49104 13.7505 8.45818 13.4054 8.44174 13.0439C8.42531 12.6987 8.40887 12.3536 8.40887 11.9921C8.40887 11.0718 8.49104 10.2007 8.62252 9.3955H15.3607C15.3935 9.54341 15.41 9.69131 15.4264 9.8392C15.4757 10.2007 15.5086 10.5623 15.5414 10.9403C15.5579 11.121 15.5579 11.3018 15.5743 11.499C16.0509 11.3675 16.5603 11.2854 17.0698 11.2689C17.0698 11.0553 17.0533 10.8581 17.0369 10.6444C17.004 10.2172 16.9547 9.78988 16.889 9.37901H20.0772C20.3401 10.2007 20.4881 11.0717 20.4881 11.9756V12.2714C21.014 12.6329 21.4741 13.0767 21.8685 13.5697C21.9507 13.0438 22 12.5179 22 11.9591C22 10.6609 21.7535 9.41188 21.2934 8.27791C21.2441 8.13 21.1783 7.99853 21.1126 7.86704C19.5349 4.4159 16.0344 2 11.9918 2C7.94921 2 4.44867 4.41578 2.871 7.89972C2.80527 8.03119 2.75597 8.1791 2.69023 8.31059C2.24653 9.44456 2 10.6935 2 11.9918C2 13.2901 2.24651 14.5391 2.70664 15.673C2.75595 15.8209 2.82168 15.9524 2.88742 16.0839C4.44863 19.5515 7.9491 21.9836 12.0082 21.9836C12.5505 21.9836 13.0929 21.9343 13.6187 21.8521C12.8956 21.3098 12.304 20.5867 11.8931 19.7815L11.8929 19.7818ZM19.4199 7.9001H16.5768C16.5275 7.73576 16.4946 7.57142 16.4453 7.42349C16.3303 7.04553 16.1988 6.68394 16.0509 6.33885C15.64 5.3528 15.1142 4.51469 14.5225 3.90661C16.6261 4.54752 18.3683 5.99371 19.4201 7.89998L19.4199 7.9001ZM11.9917 4.20242C12.912 4.20242 13.8816 5.13918 14.5719 6.71685C14.7362 7.0784 14.8841 7.47281 14.9992 7.9001H8.96799C9.65822 5.59933 10.8743 4.20242 11.9918 4.20242H11.9917ZM9.4609 3.89018C8.57346 4.81048 7.85036 6.20739 7.40662 7.90008H4.56352C5.6153 5.99373 7.3573 4.54754 9.46105 3.89018H9.4609ZM3.51159 11.9922C3.51159 11.0884 3.6595 10.2174 3.92246 9.39567H7.11066C6.96276 10.2174 6.89702 11.0884 6.89702 11.9922C6.89702 12.4359 6.91345 12.8633 6.94632 13.2905C6.97919 13.7342 7.02849 14.178 7.09423 14.5888H3.90603C3.64308 13.7671 3.51161 12.8961 3.51161 11.9922L3.51159 11.9922ZM4.56337 16.0844H7.40647C7.43934 16.2323 7.48864 16.3802 7.52151 16.5117C7.63655 16.9061 7.78446 17.3005 7.93238 17.6457C8.34325 18.6317 8.86914 19.4698 9.46076 20.0779C7.35721 19.437 5.61502 17.9908 4.56324 16.0845L4.56337 16.0844Z" fill="#979797"/>
</svg>
