<svg width="24" height="24" viewBox="0 0 24 24" fill="none" xmlns="http://www.w3.org/2000/svg">
<path d="M6.12495 17.6249H20.1874C20.7062 17.6249 21.125 17.2061 21.125 16.6873V2.93754C21.125 2.41889 20.7062 2 20.1874 2H6.12495C4.40003 2 3 3.40003 3 5.12495V18.8748C3 20.5997 4.40003 21.9997 6.12495 21.9997L20.1874 22C20.7062 22 21.125 21.5813 21.125 21.0625C21.125 20.5437 20.7062 20.1249 20.1874 20.1249H6.12495C5.43747 20.1249 4.87496 19.5624 4.87496 18.8749C4.87496 18.1875 5.43732 17.625 6.12495 17.625V17.6249ZM12.7249 14.5375C12.5499 14.7125 12.3062 14.8124 12.0625 14.8124C11.8188 14.8124 11.575 14.7124 11.4001 14.5375C11.225 14.3624 11.125 14.125 11.125 13.8749C11.125 13.6312 11.225 13.3874 11.3999 13.2125C11.7499 12.8625 12.375 12.8625 12.7249 13.2125C12.9 13.3875 12.9999 13.6312 12.9999 13.8749C13 14.1249 12.9 14.3624 12.7249 14.5375H12.7249ZM10.2562 5.4687C10.8937 4.93745 11.7374 4.71243 12.5624 4.85621C13.7 5.05617 14.6313 5.98746 14.8312 7.12498C15.0374 8.31865 14.475 9.50625 13.4187 10.0874C13.1625 10.2312 13 10.5499 13 10.9125V11.0625C13 11.5813 12.5813 12 12.0625 12C11.5437 12 11.1249 11.5813 11.1249 11.0625V10.9125C11.1249 9.86242 11.6562 8.91866 12.5125 8.44995C12.7874 8.29994 13.0688 7.94374 12.9812 7.44999C12.9186 7.08119 12.6062 6.76874 12.2437 6.70617C11.9499 6.64999 11.675 6.72484 11.4624 6.90612C11.25 7.0874 11.1249 7.34975 11.1249 7.62486C11.1249 8.14366 10.7062 8.5624 10.1874 8.5624C9.66857 8.5624 9.24984 8.14366 9.24984 7.62486C9.24998 6.79361 9.61878 6.00608 10.2562 5.46861L10.2562 5.4687Z" fill="#979797"/>
</svg>
