<svg width="24" height="24" viewBox="0 0 24 24" fill="none" xmlns="http://www.w3.org/2000/svg">
<path d="M21.5578 7.95787C19.0105 5.41059 15.621 4 11.9999 4C8.37891 4 4.98946 5.41052 2.4421 7.95787C1.85263 8.54734 1.85263 9.47365 2.4421 10.0631C2.73683 10.3579 3.11586 10.5053 3.49473 10.5053C3.8736 10.5053 4.25262 10.3579 4.54735 10.0631C6.52618 8.06302 9.17891 6.96825 11.9999 6.96825C14.821 6.96825 17.4736 8.06302 19.4525 10.063C20.042 10.6524 20.9683 10.6524 21.5578 10.063C22.1474 9.4735 22.1474 8.52618 21.5578 7.95772V7.95787Z" fill="#979797"/>
<path d="M6.40011 11.937C5.81064 12.5264 5.81064 13.4528 6.40011 14.0422C6.69484 14.3369 7.07387 14.4844 7.45274 14.4844C7.83161 14.4844 8.21063 14.337 8.50536 14.0422C10.4422 12.1054 13.579 12.1054 15.4948 14.0212C16.0633 14.6107 17.0106 14.6107 17.6 14.0212C18.1895 13.4318 18.1895 12.5054 17.6 11.916C14.5053 8.84223 9.49483 8.84223 6.40011 11.937Z" fill="#979797"/>
<path d="M14.3366 17.5151C14.3366 18.794 13.2999 19.8308 12.0208 19.8308C10.7418 19.8308 9.70508 18.794 9.70508 17.5151C9.70508 16.236 10.7418 15.1992 12.0208 15.1992C13.2998 15.1992 14.3366 16.236 14.3366 17.5151Z" fill="#979797"/>
</svg>
