<svg width="18" height="18" viewBox="0 0 18 18" fill="none" xmlns="http://www.w3.org/2000/svg">
<path d="M2.24344 6.69863C1.83451 6.69863 1.5 6.37261 1.5 5.97405V2.24215C1.5 1.8436 1.83451 1.51758 2.24344 1.51758H6.20258C6.61151 1.51758 6.94602 1.8436 6.94602 2.24215C6.94602 2.64071 6.61151 2.96673 6.20258 2.96673H2.98697V5.99211C2.98697 6.37261 2.65233 6.69863 2.2434 6.69863H2.24344Z" fill="white"/>
<path d="M15.7382 6.6991C15.3292 6.6991 14.9947 6.37308 14.9947 5.97453L14.9946 2.94915H11.8347C11.4258 2.94915 11.0913 2.62313 11.0913 2.22458C11.0913 1.82602 11.4258 1.5 11.8347 1.5H15.7567C16.1656 1.5 16.5002 1.82602 16.5002 2.22458V5.99271C16.4816 6.37308 16.1471 6.6991 15.7382 6.6991H15.7382Z" fill="white"/>
<path d="M6.20268 16.4994H2.26212C1.85319 16.4994 1.51868 16.1734 1.51868 15.7748L1.51855 12.0429C1.51855 11.6444 1.85306 11.3184 2.26199 11.3184C2.67092 11.3184 3.00542 11.6444 3.00542 12.0429V15.0683L6.20261 15.0684C6.61154 15.0684 6.94605 15.3945 6.94605 15.793C6.94605 16.1916 6.63008 16.4995 6.20261 16.4995L6.20268 16.4994Z" fill="white"/>
<path d="M15.7196 16.5H11.7976C11.3887 16.5 11.0542 16.174 11.0542 15.7754C11.0542 15.3769 11.3887 15.0508 11.7976 15.0508H14.9762V12.0254C14.9762 11.6268 15.3107 11.3008 15.7196 11.3008C16.1285 11.3008 16.463 11.6268 16.463 12.0254V15.7935C16.4632 16.174 16.1285 16.5 15.7196 16.5V16.5Z" fill="white"/>
</svg>
