<svg id="Capa_1" data-name="Capa 1" xmlns="http://www.w3.org/2000/svg" viewBox="0 0 489.8 352.4"><path d="M355.8,271.4a17.4,17.4,0,0,0,9.9,3.2,17,17,0,0,0,14-7.2,158,158,0,0,0,0-182.2,17.15,17.15,0,1,0-28,19.8,123.46,123.46,0,0,1,0,142.4A17.35,17.35,0,0,0,355.8,271.4Z"/><path d="M418.8,328.8a17.4,17.4,0,0,0,9.9,3.2,17,17,0,0,0,14-7.2,257.65,257.65,0,0,0,0-297,17.15,17.15,0,1,0-28,19.8,223.07,223.07,0,0,1,0,257.2A17.35,17.35,0,0,0,418.8,328.8Z"/><path d="M52.4,72A52.45,52.45,0,0,0,0,124.4V227.9a52.45,52.45,0,0,0,52.4,52.4H158.1l92.5,66.8a11.91,11.91,0,0,0,1.5.9,32.78,32.78,0,0,0,16.4,4.4h0a33.25,33.25,0,0,0,22.9-9.2,32.59,32.59,0,0,0,10.1-23.7V33A33,33,0,0,0,252.1,4.4c-.4.2-.8.5-1.2.7L154.2,71.9H52.4Zm116.8,31.3,97.9-67.6V316.9l-93.4-67.6a17,17,0,0,0-10-3.2H52.4A18.1,18.1,0,0,1,34.3,228V124.5a18.1,18.1,0,0,1,18.1-18.1H159.5A17.47,17.47,0,0,0,169.2,103.3Z"/></svg>