<svg fill="none" height="249" viewBox="0 0 343 249" width="343" xmlns="http://www.w3.org/2000/svg" xmlns:xlink="http://www.w3.org/1999/xlink"><linearGradient id="a"><stop offset="0" stop-color="#548494"/><stop offset="1" stop-color="#cfd8dc"/></linearGradient><linearGradient id="b" gradientUnits="userSpaceOnUse" x1="172.014" x2="172.014" xlink:href="#a" y1="30" y2="80"/><linearGradient id="c" gradientUnits="userSpaceOnUse" x1="265.026" x2="265.026" xlink:href="#a" y1="179" y2="219"/><linearGradient id="d" gradientUnits="userSpaceOnUse" x1="287.714" x2="287.714" xlink:href="#a" y1="189.25" y2="206.414"/><linearGradient id="e" gradientUnits="userSpaceOnUse" x1="283.48" x2="283.48" xlink:href="#a" y1="192" y2="203.125"/><linearGradient id="f" gradientUnits="userSpaceOnUse" x1="72.3102" x2="72.3102" xlink:href="#a" y1="194.172" y2="202.448"/><linearGradient id="g" gradientUnits="userSpaceOnUse" x1="72.3104" x2="72.3104" xlink:href="#a" y1="190.723" y2="206.585"/><linearGradient id="h" gradientUnits="userSpaceOnUse" x1="72.3101" x2="72.3101" xlink:href="#a" y1="179" y2="189.345"/><linearGradient id="i" gradientUnits="userSpaceOnUse" x1="72.3104" x2="72.3104" xlink:href="#a" y1="214.184" y2="218.999"/><linearGradient id="j" gradientUnits="userSpaceOnUse" x1="72.3137" x2="72.3137" xlink:href="#a" y1="212.117" y2="216.077"/><linearGradient id="k" gradientUnits="userSpaceOnUse" x1="72.3098" x2="72.3098" xlink:href="#a" y1="210.043" y2="213.123"/><rect fill="#f2f2f2" height="249" rx="4" width="343"/><path d="m156.943 39.3512c-.449-.3297-.559-.9541-.25-1.4175 2.319-3.2813 5.63-5.7315 9.445-6.9899 3.816-1.2584 7.935-1.2584 11.751 0s7.127 3.7086 9.446 6.9899c.219.3169.246.7294.069 1.0721-.176.3427-.528.5597-.914.5643-.339.0017-.658-.1616-.854-.4377-2.061-2.9188-5.005-5.0981-8.398-6.2176-3.393-1.1196-7.056-1.1195-10.449 0-3.393 1.1194-6.337 3.2988-8.398 6.2176-.341.4572-.987.5549-1.449.2189zm19.803 7.0873c.176.3581.54.5846.938.5839.155-.0011.309-.0367.449-.1044.461-.2603.654-.8253.448-1.3131-.801-1.6531-2.196-2.9436-3.906-3.6133-1.711-.67-3.611-.67-5.321 0-1.711.6697-3.105 1.9602-3.906 3.6133-.246.5182-.027 1.1376.49 1.3861.515.2474 1.134.0335 1.386-.4795.572-1.1806 1.568-2.1022 2.79-2.5807 1.222-.4784 2.579-.4784 3.8 0 1.222.4785 2.219 1.4001 2.79 2.5807zm4.868-3.9605c.151.2332.389.3961.661.453.272.0565.555.0024.787-.1508.48-.3147.615-.9572.303-1.4381-2.501-3.8362-6.771-6.1496-11.351-6.1496-4.579 0-8.849 2.3134-11.35 6.1496-.312.4809-.177 1.1233.302 1.4381.232.1532.516.2073.788.1508.272-.0569.51-.2198.661-.453 2.117-3.2419 5.728-5.1962 9.599-5.1962 3.872 0 7.483 1.9543 9.6 5.1962zm-10.642 9.3804v8.338c0 .5759.467 1.0424 1.042 1.0424.576 0 1.042-.4665 1.042-1.0424v-8.338c0-.5754-.466-1.0424-1.042-1.0424-.575 0-1.042.467-1.042 1.0424zm26.057 13.7267v11.1109c0 .8762-.348 1.7166-.968 2.3363s-1.46.9677-2.336.9677h-43.421c-.876 0-1.717-.3479-2.336-.9677-.62-.6198-.968-1.4601-.968-2.3363v-11.1109c0-.8763.348-1.7166.968-2.336.619-.6198 1.46-.9677 2.336-.9677h43.421c.876 0 1.716.3479 2.336.9677.62.6194.968 1.4598.968 2.336zm-39.606 4.5133c0-.5531-.22-1.0832-.611-1.4741-.391-.3908-.921-.6107-1.474-.6107s-1.083.2199-1.474.6107c-.391.3909-.61.921-.61 1.4741 0 .5528.219 1.0829.61 1.4737.391.3912.921.6107 1.474.6107s1.083-.2195 1.474-.6107c.391-.3908.611-.921.611-1.4737zm8.338 0c0-.5531-.22-1.0832-.611-1.4741-.391-.3908-.921-.6107-1.474-.6107s-1.083.2199-1.474.6107c-.391.3909-.61.921-.61 1.4741 0 .5528.219 1.0829.61 1.4737.391.3912.921.6107 1.474.6107s1.083-.2195 1.474-.6107c.391-.3908.611-.921.611-1.4737zm8.338 0c0-.5531-.22-1.0832-.611-1.4741-.39-.3908-.921-.6107-1.474-.6107-.552 0-1.083.2199-1.474.6107-.391.3909-.61.921-.61 1.4741 0 .5528.219 1.0829.61 1.4737.391.3912.922.6107 1.474.6107.553 0 1.084-.2195 1.474-.6107.391-.3908.611-.921.611-1.4737z" fill="url(#b)"/><path d="m256.776 179c-3.25 0-5.5 2-5.5 5v30c0 2.75 2.5 5 5.5 5h16.5c3 0 5.5-2.25 5.5-5v-30c0-3-1.75-5-5.25-5zm13 36.25h-9.25c-.75 0-1.5-.5-1.5-1.25s.75-1.25 1.5-1.25h9.25c.75 0 1.5.5 1.5 1.25s-.75 1.25-1.5 1.25zm4-6.25h-17.5v-24.5c0-.75.75-1.5 1.5-1.5h14.25c.75 0 1.5.75 1.5 1.5v24.5z" fill="url(#c)"/><path d="m287.277 206c2.25-2.25 3.25-5.25 3.25-8 0-3-1.001-6-3.25-8.25-.25-.25-.5-.5-1-.5-.251 0-.751.25-1.001.5-.5.5-.5 1.5 0 2 1.75 1.75 2.5 4 2.5 6.25s-.75 4.5-2.5 6.25c-.5.5-.5 1.25 0 2 .751.25 1.5.25 2.001-.25z" fill="url(#d)"/><path d="m283.527 202.75c-.5.5-1.25.5-1.75 0s-.5-1.25 0-1.75c2-2 2-5 0-7-.5-.5-.5-1.25 0-1.75.25-.25.5-.25.75-.25s.5 0 .75.25c3 3 3 7.5.25 10.5z" fill="url(#e)"/><path d="m72.3102 202.448c1.0976 0 2.1499-.436 2.9261-1.212.7759-.776 1.2118-1.829 1.2118-2.926 0-1.098-.4359-2.15-1.2118-2.926-.7761-.776-1.8285-1.212-2.9261-1.212s-2.1498.436-2.926 1.212c-.7759.776-1.2118 1.828-1.2118 2.926.0012 1.097.4375 2.149 1.213 2.925.7759.775 1.8279 1.211 2.9248 1.213zm-1.0344-6.207c.4184 0 .7956.252.9556.638.1601.387.0718.832-.2241 1.128s-.7408.384-1.1275.224c-.3864-.16-.6385-.537-.6385-.956 0-.571.463-1.034 1.0344-1.034z" fill="url(#f)"/><path d="m72.31 206.585c4.2687-.006 8.3711-1.658 11.4521-4.613 3.0806-2.955 4.9023-6.985 5.0852-11.249h-33.0739c.1829 4.264 2.0047 8.294 5.0853 11.249 3.0809 2.955 7.1831 4.607 11.4521 4.613zm0-13.793c1.4633 0 2.8666.581 3.9011 1.616 1.0348 1.034 1.6161 2.437 1.6161 3.901 0 1.463-.5813 2.866-1.6161 3.901-1.0345 1.035-2.4378 1.616-3.9011 1.616s-2.8667-.581-3.9011-1.616c-1.0348-1.035-1.6161-2.438-1.6161-3.901.0016-1.463.5834-2.865 1.6179-3.9 1.0341-1.034 2.4365-1.616 3.8993-1.617zm-8.5162 7.2-.8965 1.048c-1.5175-1.295-2.7506-2.89-3.6212-4.684l1.2413-.604c.7879 1.625 1.9033 3.068 3.2764 4.24zm-3.931-5.856-1.3103.432c-.1767-.537-.3217-1.085-.4344-1.639l1.3516-.276c.1012.502.2324.997.3925 1.483z" fill="url(#g)"/><path d="m53 179v10.345h38.6202v-10.345z" fill="url(#h)"/><path d="m80.0982 214.394c-2.0652 2.066-4.8669 3.226-7.7881 3.226-2.9211 0-5.7228-1.16-7.788-3.226-.1287-.133-.3051-.209-.4901-.21-.1851-.002-.363.071-.4936.202-.1308.13-.2038.308-.2019.493.0015.185.0772.362.2102.49 2.3242 2.324 5.4765 3.63 8.7637 3.63 3.2871 0 6.4392-1.306 8.7636-3.63.133-.128.2088-.305.2103-.49.0018-.185-.0711-.363-.202-.493-.1305-.131-.3085-.204-.4935-.202-.185.001-.3614.077-.4901.21z" fill="url(#i)"/><path d="m65.6149 212.328c-.2691.269-.2691.705 0 .975 1.7752 1.776 4.1834 2.774 6.6945 2.774s4.9193-.998 6.6946-2.774c.133-.129.2087-.305.2103-.49.0018-.185-.0712-.363-.202-.494-.1305-.131-.3085-.204-.4935-.202-.1851.002-.3615.077-.4902.211-1.5178 1.514-3.5747 2.365-5.7191 2.365-2.1443 0-4.2013-.851-5.7191-2.365-.2694-.27-.7059-.27-.9753 0z" fill="url(#j)"/><path d="m76.9353 211.212c.2614-.271.2574-.701-.0086-.967s-.6961-.27-.9668-.009c-.9692.966-2.2819 1.508-3.6501 1.508s-2.6811-.542-3.6502-1.508c-.2706-.261-.7007-.257-.9668.009-.266.266-.27.696-.0086.967 1.2281 1.224 2.8917 1.911 4.6256 1.911 1.734 0 3.3974-.687 4.6256-1.911z" fill="url(#k)"/><g fill="#cfd8dc"><path d="m126.495 100c0-.3029-.2-.5484-.446-.5484h-4.018c-.246 0-.446.2455-.446.5484 0 .303.2.548.446.548h3.571v4.387c0 .303.2.549.447.549.246 0 .446-.246.446-.549zm-.762-.3878-48.0488 59.0268.6313.776 48.0485-59.027z"/><path d="m88.5852 159.027c0 .303.1999.548.4464.548h4.0176c.2466 0 .4464-.245.4464-.548s-.1998-.549-.4464-.549h-3.5712v-4.387c0-.303-.1998-.548-.4464-.548-.2465 0-.4464.245-.4464.548zm48.1798-59.4148-48.049 59.0268.6313.776 48.0487-59.027z"/><path d="m265.739 159.027c0 .303-.2.548-.446.548h-4.018c-.247 0-.446-.245-.446-.548s.199-.549.446-.549h3.571v-4.387c0-.303.2-.548.447-.548.246 0 .446.245.446.548zm-48.18-59.4148 48.049 59.0268-.631.776-48.049-59.027z"/><path d="m205.766 100c0-.3029.199-.5484.446-.5484h4.017c.247 0 .447.2455.447.5484 0 .303-.2.548-.447.548h-3.571v4.387c0 .303-.2.549-.446.549-.247 0-.446-.246-.446-.549zm.762-.3878 48.049 59.0268-.632.776-48.049-59.027z"/><path d="m229.857 195.354c.196-.196.196-.512 0-.708l-3.182-3.182c-.195-.195-.512-.195-.707 0-.195.196-.195.512 0 .708l2.829 2.828-2.829 2.828c-.195.196-.195.512 0 .708.195.195.512.195.707 0zm-115.857.146h115.504v-1h-115.504z"/><path d="m113.646 203.381c-.195.195-.195.512 0 .707l3.182 3.182c.196.195.512.195.708 0 .195-.195.195-.512 0-.707l-2.829-2.829 2.829-2.828c.195-.195.195-.512 0-.707-.196-.195-.512-.195-.708 0zm.354.853h115.504v-1h-115.504z"/></g><path d="m175.767 126.488-5.511 5.512-2.489-2.489c-.372-.372-.953-.372-1.325 0-.372.373-.372.954 0 1.326l3.139 3.14c.186.186.419.279.651.279.233 0 .466-.093.652-.279l6.162-6.163c.373-.372.373-.954 0-1.326-.325-.349-.93-.349-1.279 0z" fill="#6fcf97"/><path d="m172 120c-5.512 0-10 4.488-10 10s4.488 10 10 10c4.372 0 8.209-2.791 9.535-6.953.163-.489-.116-1.024-.605-1.163-.488-.163-1.023.116-1.163.604-1.093 3.373-4.209 5.651-7.767 5.651-4.488 0-8.139-3.651-8.139-8.139s3.651-8.14 8.139-8.14 8.14 3.652 8.14 8.14c0 .512.418.93.93.93.511 0 .93-.418.93-.93 0-5.512-4.488-10-10-10z" fill="#6fcf97"/></svg>