<svg width="48" height="46" viewBox="0 0 48 46" fill="none" xmlns="http://www.w3.org/2000/svg">
<path d="M44.6818 14.4842C44.6457 14.4568 44.6105 14.4309 44.5744 14.4035L26.6133 0.933482C24.9501 -0.314294 23.0424 -0.308024 21.3886 0.933482L3.42677 14.4035C1.22749 16.0534 0.486816 17.588 0.486816 19.5475V43.0616C0.486816 44.684 1.80278 46 3.42677 46H44.5752C46.1976 46 47.5136 44.684 47.5136 43.0616V19.5475C47.5136 17.6186 46.8858 16.1678 44.6818 14.4842ZM40.8107 39.276H34.0867V25.8279C34.0867 23.9711 32.581 22.4662 30.725 22.4662C28.8682 22.4662 27.3634 23.9719 27.3634 25.8279V39.276H20.6393V25.8279C20.6393 23.9711 19.1337 22.4662 17.2777 22.4662C15.4209 22.4662 13.9161 23.9719 13.9161 25.8279V39.276H7.19205V25.8279C7.19205 20.2568 11.7074 15.7422 17.2777 15.7422C19.8618 15.7422 22.2171 16.7125 24.0018 18.3099C25.7864 16.7125 28.1417 15.7422 30.7258 15.7422C36.2969 15.7422 40.8115 20.2576 40.8115 25.8279V39.276H40.8107Z" fill="#0061AF"/>
</svg>
