<?xml version="1.0" encoding="utf-8"?>
<!-- Generator: Adobe Illustrator 24.0.0, SVG Export Plug-In . SVG Version: 6.00 Build 0)  -->
<svg version="1.2" baseProfile="tiny" id="Layer_1" xmlns="http://www.w3.org/2000/svg" xmlns:xlink="http://www.w3.org/1999/xlink"
	 x="0px" y="0px" viewBox="0 0 288 288" xml:space="preserve">
<g>
	<g>
		<path fill="#0061AF" d="M149,156.9h6.1l-1.6,8h-5.6c-1.9,0-2.9-0.2-3.6-1.1c-0.7-0.7-1.1-1.8-1.1-3.4c0-0.7,0.1-1.4,0.2-2.2
			c0.5-2.6,1.6-4.5,3-5.6c1.1-0.7,2.5-1.2,4.2-1.2h5.4l-0.5,2.4h-5.1c-2.4,0-3.5,1.2-4.1,4.1c-0.2,0.7-0.2,1.4-0.2,2
			c0,1,0.2,1.6,0.7,2.1c0.4,0.3,1.1,0.5,2.1,0.5h2.4l0.7-3.2h-3.5L149,156.9z"/>
		<path fill="#0061AF" d="M158.3,151.5h2.6l-1.5,7.5c-0.2,1.1-0.3,1.7-0.3,2.1c0,0.7,0.4,1.3,1.6,1.4c0.2,0,0.7,0,1.4,0h2.6
			l-0.5,2.4h-2.8c-1.3,0-2.2-0.1-2.7-0.2c-1.2-0.4-2-1.2-2.1-2.6c-0.1-0.7,0-1.6,0.2-3.1L158.3,151.5z"/>
		<path fill="#0061AF" d="M178.3,153.4c0.3,0.7,0.5,1.5,0.5,2.5c0,0.7-0.1,1.6-0.2,2.5c-0.5,2.5-1.5,4.3-3,5.3
			c-1.2,0.8-2.6,1.2-4.3,1.2c-2.5,0-4-0.7-4.8-2.3c-0.2-0.7-0.4-1.4-0.4-2.3c0-0.7,0.1-1.3,0.2-2.1c0.5-2.6,1.5-4.5,3-5.6
			c1.2-0.9,2.7-1.3,4.5-1.3C176.1,151.4,177.6,152.1,178.3,153.4z M170.5,155c-0.5,0.7-0.9,1.6-1.2,3.1c-0.2,0.7-0.2,1.3-0.2,1.9
			c0,1.8,0.9,2.7,2.6,2.7c2.1,0,3.5-1.5,4.1-4.5c0.2-0.7,0.2-1.3,0.2-1.9c0-1.8-0.8-2.6-2.5-2.6C172.1,153.7,171.1,154.1,170.5,155z
			"/>
		<path fill="#0061AF" d="M178.8,164.9l2.6-13.4h7c1.2,0,2,0.2,2.4,0.5c0.7,0.5,1.1,1.2,1.1,2.3c0,0.8-0.2,1.6-0.7,2.4
			c-0.5,0.7-1.1,1.3-1.8,1.6c0.9,0.5,1.3,1.2,1.3,2.2c0,0.2,0,0.6-0.1,0.9c-0.3,1.6-1.2,2.7-2.5,3.2c-0.5,0.2-1.3,0.3-2.5,0.3
			L178.8,164.9L178.8,164.9z M181.9,162.5h3.6c0.7,0,1.2-0.2,1.4-0.3c0.6-0.4,0.9-1,0.9-1.6c0-0.5-0.2-0.9-0.7-1.1
			c-0.2-0.1-0.5-0.1-0.9-0.1h-3.6L181.9,162.5z M183,157h3.6c0.6,0,1.1-0.1,1.4-0.3c0.6-0.4,0.9-1,0.9-1.6c0-0.5-0.2-0.9-0.7-1.1
			c-0.2-0.1-0.5-0.1-0.9-0.1h-3.7L183,157z"/>
		<path fill="#0061AF" d="M190.6,164.9l7.8-13.4h3l2.5,13.4h-3.1l-0.6-3.1h-4.8l-1.8,3.1H190.6z M199.3,154.7l-2.7,4.7h3.5
			L199.3,154.7z"/>
		<path fill="#0061AF" d="M207.8,151.5h2.6L209,159c-0.2,1.1-0.2,1.7-0.2,2.1c0,0.7,0.4,1.3,1.6,1.4c0.2,0,0.7,0,1.4,0h2.6l-0.5,2.4
			h-2.8c-1.3,0-2.2-0.1-2.7-0.2c-1.2-0.4-2-1.2-2.1-2.6c-0.1-0.7,0-1.6,0.3-3.1L207.8,151.5z"/>
	</g>
	<g>
		<polygon fill="#ED1C24" points="136.9,118.6 136.9,121.9 140,121.9 140,118.6 		"/>
	</g>
	<g>
		<g>
			<path fill="#ED1C24" d="M178,125.1L178,125.1L178,125.1L178,125.1L178,125.1z M191.7,128.9L191.7,128.9c-0.2-0.9-0.5-1.6-1.1-2.3
				l0,0c-0.7-0.9-1.6-1.4-2.8-1.7c-1.1-0.3-2.6-0.4-4.9-0.4c-2.3,0-3.9,0.2-4.9,0.7c-0.5,0.2-1,0.6-1.4,1v-0.8h-3v17.3h3v-10.9
				c0-2.9,2.7-4,5.4-4h1.4c2.7,0,5.4,1.2,5.4,4v10.9h3v-9.5C191.9,130.9,191.9,129.6,191.7,128.9L191.7,128.9z"/>
		</g>
		<g>
			<path fill="#ED1C24" d="M140,124.2h3c0-1.8,0.1-3.5,0.2-4.2s0.4-1.4,0.9-2c0.6-0.7,1.3-1.2,2.2-1.6c0.9-0.2,2.5-0.5,4.5-0.5h2.9
				l-2.8,2.9c-0.1,0-1.1,0-1.2,0c-4,0-3.8,2.8-3.8,5.3h7.2l-2.9,3.2H146v15h-3.1v-15H140V124.2L140,124.2z"/>
		</g>
		<g>
			<path fill="#0061AF" d="M113.3,133.4c0,2.1-0.2,3.8-0.7,5c-0.4,1.3-2,4.3-9.4,4.3c-7.4,0-9-3-9.4-4.3c-0.4-1.2-0.7-3-0.7-5
				c0-2.1,0.2-3.8,0.7-5c0.4-1.3,2-4.3,9.4-4.3c7.4,0,9,3,9.4,4.3C113.1,129.7,113.3,131.3,113.3,133.4L113.3,133.4z M109.4,129.4
				L109.4,129.4c-0.2-0.7-0.7-1.2-1.6-1.5c-0.7-0.2-2.2-0.4-4.6-0.5c-2.5,0-3.8,0.2-4.6,0.5c-0.7,0.2-1.3,0.7-1.6,1.5
				c-0.2,0.6-0.5,2-0.5,3.9s0.2,3.4,0.5,3.9c0.2,0.7,0.7,1.2,1.6,1.5c0.7,0.2,2.2,0.4,4.6,0.5c2.5,0,3.9-0.2,4.6-0.5
				s1.3-0.7,1.6-1.5c0.2-0.6,0.5-2,0.5-3.9C109.9,131.4,109.7,130,109.4,129.4L109.4,129.4z"/>
		</g>
		<g>
			<path fill="#ED1C24" d="M171.4,133.4c0,2.1-0.2,3.8-0.7,5c-0.4,1.3-2,4.3-9.4,4.3c-7.4,0-8.9-3-9.4-4.3c-0.4-1.2-0.7-3-0.7-5
				c0-2.1,0.2-3.8,0.7-5c0.4-1.3,2-4.3,9.4-4.3c7.4,0,9,3,9.4,4.3C171.1,129.7,171.4,131.3,171.4,133.4L171.4,133.4z M167.5,129.4
				L167.5,129.4c-0.2-0.7-0.7-1.2-1.6-1.5c-0.7-0.2-2.2-0.4-4.6-0.5c-2.5,0-3.8,0.2-4.6,0.5c-0.7,0.2-1.2,0.7-1.6,1.5
				c-0.2,0.6-0.5,2-0.5,3.9s0.2,3.4,0.5,3.9c0.3,0.7,0.7,1.2,1.6,1.5c0.8,0.2,2.2,0.4,4.6,0.5c2.5,0,3.9-0.2,4.6-0.5
				s1.2-0.7,1.6-1.5c0.2-0.6,0.5-2,0.5-3.9C168,131.4,167.8,130,167.5,129.4L167.5,129.4z"/>
		</g>
		<g>
			<path fill="#0061AF" d="M77,124.9L77,124.9L77,124.9L77,124.9L77,124.9z M77,124.9L77,124.9L77,124.9L77,124.9L77,124.9L77,124.9
				z M90.8,128.8L90.8,128.8c-0.2-0.9-0.6-1.6-1.1-2.3l0,0c-0.7-0.9-1.6-1.4-2.8-1.7c-1.1-0.3-2.6-0.5-4.8-0.5c-2.4,0-4,0.2-5.1,0.7
				l0,0l0,0c-0.9,0.3-1.6,1-2.2,1.9c-0.7-0.9-1.4-1.6-2.5-2c-1.2-0.4-3.2-0.7-5.8-0.7c-2,0-3.4,0.2-4.2,0.5l0,0
				c-0.7,0.2-1.2,0.7-1.8,1.3c0-0.5,0-0.9,0-0.9h-3v17.3h3v-10.9c0-2.9,2.7-4,5.4-4h1.4c2.7,0,5.4,1.2,5.4,4v10.9h3v-10.9
				c0-2.9,2.7-4,5.4-4h1.4c2.7,0,5.4,1.2,5.4,4v10.9h3V133C91.1,130.9,91,129.6,90.8,128.8L90.8,128.8z"/>
		</g>
		<g>
			<path fill="#ED1C24" d="M212.5,134.6h1.6c0-0.4,0-0.8,0-1.2c0-2.1-0.2-3.8-0.7-5c-0.4-1.3-2-4.3-9.4-4.3s-8.9,3-9.3,4.3
				c-0.4,1.3-0.7,3-0.7,5c0,2.1,0.2,3.8,0.7,5c0.4,1.3,2,4.3,9.3,4.3c7.4,0,9-3,9.4-4.3c0-0.2,0.1-0.2,0.2-0.3h-3.7
				c-0.2,0.4-0.7,0.7-1.2,0.8c-0.7,0.2-2.2,0.4-4.6,0.5c-2.5,0-3.8-0.2-4.6-0.5c-0.7-0.2-1.2-0.7-1.6-1.5c-0.2-0.4-0.4-1.4-0.4-2.7
				L212.5,134.6L212.5,134.6L212.5,134.6z M199.5,127.9L199.5,127.9c0.7-0.2,2.2-0.4,4.6-0.5c2.5,0,3.8,0.2,4.6,0.5
				c0.7,0.2,1.3,0.7,1.6,1.5c0.2,0.4,0.3,1.2,0.4,2.1h-13.1c0.2-1.1,0.2-1.7,0.4-2.1C198.3,128.7,198.8,128.2,199.5,127.9
				L199.5,127.9z"/>
		</g>
		<g>
			<polygon fill="#0061AF" points="136.9,124.2 136.9,142.4 140,142.4 140,124.2 			"/>
		</g>
		<g>
			<path fill="#0061AF" d="M134.1,128.4c-0.4-1.3-2-4.3-9.4-4.3c-2.9,0-4.8,0.4-6.2,1.1v-9h-3v26.4h3v-0.8c1.4,0.6,3.4,1.1,6.2,1.1
				c7.4,0,8.9-3,9.4-4.3c0.4-1.2,0.7-3,0.7-5C134.8,131.3,134.6,129.7,134.1,128.4L134.1,128.4z M130.9,137.3L130.9,137.3
				c-0.2,0.7-0.7,1.2-1.6,1.5c-0.8,0.2-2.2,0.4-4.6,0.5c-2.5,0-3.4-0.2-4.2-0.5c-0.7-0.2-1.2-0.7-1.6-1.5c-0.2-0.5-0.4-1.4-0.5-2.8
				v-2.4c0.1-1.4,0.2-2.3,0.5-2.8c0.2-0.7,0.7-1.2,1.6-1.5c0.7-0.2,1.7-0.4,4.2-0.5c2.5,0,3.8,0.2,4.6,0.5c0.7,0.2,1.2,0.7,1.6,1.5
				c0.2,0.6,0.5,2,0.5,3.9C131.4,135.4,131.1,136.8,130.9,137.3L130.9,137.3z"/>
		</g>
	</g>
	<path fill="#ED1C24" d="M177.5,175c0,0-60.2,24.9-86.7,7.4c-20.5-13.6,1.3-36.6,1.3-36.6s-16,21.8,3,31.8
		C114,187.7,156.1,183.2,177.5,175z"/>
	<path fill="#0061AF" d="M232.3,122.3L232.3,122.3c0.2-1.6,0.3-3.4,0.2-5l0,0l0,0c-0.6-4.5-3-9-8.6-12.8
		c-26.5-17.5-86.8,7.4-86.8,7.4s2.4-0.7,6.5-1.8l-6.5,1.8c0,0,22.8-5.7,41.2-7.8c2.3-0.2,4.6-0.4,7-0.6c13.3-0.2,26,1.4,34.2,5.8
		c5,2.6,7.6,6.1,8.6,9.7c0.2,0.5,0.3,1.2,0.4,2l0,0c0.8,5-0.8,10.2-2.6,14.1l-0.3,0.5c-1.6,3.4-3.2,5.6-3.2,5.6s6-4.8,9.4-16.5
		C231.9,123.8,232.1,123.1,232.3,122.3L232.3,122.3z"/>
</g>
</svg>
