<svg width="103" height="24" viewBox="0 0 103 24" fill="none" xmlns="http://www.w3.org/2000/svg">
<path d="M75.6591 7.72468C75.6604 7.72468 75.6604 7.72468 75.6617 7.7234L75.6591 7.72468ZM83.4296 9.71106C83.3198 9.24 83.1218 8.84425 82.8242 8.50085L82.8229 8.4983C82.4154 8.04255 81.898 7.74 81.2376 7.57276C80.627 7.41191 79.729 7.33276 78.4924 7.33276C77.1447 7.33276 76.2774 7.49106 75.6617 7.72468C75.387 7.82425 75.0894 8.03872 74.8697 8.24553V7.79234H73.126V16.9187H74.8773V11.1217C74.8773 9.60893 76.4243 9.01021 77.9661 9.01021H78.739C80.2808 9.01021 81.8418 9.60766 81.8418 11.1217V16.9187H83.5702V11.9413C83.5702 10.8115 83.5267 10.1234 83.4296 9.71106Z" fill="#EC1F26"/>
<path d="M53.9556 7.30589H55.698C55.7184 6.37142 55.7491 5.48163 55.8513 5.07568C55.9317 4.671 56.1144 4.32632 56.3776 4.06334C56.6816 3.69951 57.107 3.43525 57.6537 3.25398C58.1813 3.11227 59.0755 2.98972 60.252 2.97057L61.8896 2.96802L60.3146 4.50504C60.2584 4.50504 59.7014 4.50759 59.6477 4.50759C57.3292 4.50759 57.4915 5.991 57.4915 7.30589H61.569L59.9211 8.98334H57.4519L57.4608 16.9046H55.6992V8.98334H53.9568V7.30589H53.9556Z" fill="#EC1F26"/>
<path d="M52.2119 4.30469V6.0932H53.9556V4.30469H52.2119Z" fill="#EC1F26"/>
<path d="M38.7467 12.1328C38.7467 13.2179 38.6203 14.1103 38.3686 14.7766C38.1144 15.4711 37.247 17.0401 33.0341 17.0401C28.8224 17.0401 27.9538 15.4724 27.7009 14.7766C27.4492 14.109 27.3228 13.2167 27.3228 12.1328C27.3228 11.0477 27.4505 10.1554 27.7009 9.48771C27.9551 8.79325 28.8224 7.22559 33.0341 7.22559C37.247 7.22559 38.1144 8.79325 38.3686 9.48771C38.6203 10.1554 38.7467 11.0477 38.7467 12.1328ZM36.5419 10.0354C36.3797 9.64091 36.0986 9.38559 35.6643 9.23495C35.2134 9.09069 34.4201 9.00644 33.0354 8.98601C31.6507 9.00644 30.8574 9.08942 30.4064 9.23495C29.9721 9.38559 29.6898 9.64091 29.5289 10.0354C29.3998 10.3367 29.2542 11.072 29.2542 12.1328C29.2542 13.1937 29.4011 13.9277 29.5289 14.2303C29.6911 14.6247 29.9721 14.8801 30.4064 15.0307C30.8574 15.1749 31.6507 15.2592 33.0354 15.2796C34.4214 15.2592 35.2134 15.1762 35.6643 15.0307C36.0986 14.8801 36.3797 14.6247 36.5419 14.2303C36.6709 13.9277 36.8165 13.1937 36.8165 12.1328C36.8165 11.072 36.6709 10.3367 36.5419 10.0354Z" fill="#006CB6"/>
<path d="M71.846 12.1328C71.846 13.2179 71.7183 14.1103 71.4679 14.7766C71.2137 15.4711 70.3463 17.0401 66.1347 17.0401C61.923 17.0401 61.0544 15.4724 60.8015 14.7766C60.5498 14.109 60.4233 13.2167 60.4233 12.1328C60.4233 11.0477 60.5498 10.1554 60.8015 9.48771C61.0557 8.79325 61.923 7.22559 66.1347 7.22559C70.3463 7.22559 71.215 8.79325 71.4679 9.48771C71.7183 10.1554 71.846 11.0477 71.846 12.1328ZM69.6399 10.0354C69.4777 9.64091 69.1967 9.38559 68.7623 9.23495C68.3114 9.09069 67.5181 9.00644 66.1334 8.98601C64.7474 9.00644 63.9554 9.08942 63.5045 9.23495C63.0702 9.38559 62.7878 9.64091 62.6269 10.0354C62.4979 10.3367 62.3522 11.072 62.3522 12.1328C62.3522 13.1937 62.4979 13.9277 62.6269 14.2303C62.7878 14.6247 63.0702 14.8801 63.5045 15.0307C63.9554 15.1749 64.7474 15.2592 66.1334 15.2796C67.5194 15.2592 68.3114 15.1762 68.7623 15.0307C69.1967 14.8801 69.4777 14.6247 69.6399 14.2303C69.7689 13.9277 69.9146 13.1937 69.9146 12.1328C69.9146 11.072 69.7689 10.3367 69.6399 10.0354Z" fill="#EC1F26"/>
<path d="M38.1052 16.2189L38.104 16.2201L38.1052 16.2189C38.1052 16.2177 38.1052 16.2177 38.1052 16.2189Z" fill="#949697"/>
<path d="M18.0639 7.65951C18.0639 7.65951 18.0626 7.66079 18.0639 7.65951V7.65951ZM25.9251 9.6944C25.8153 9.22334 25.6147 8.8276 25.3158 8.48419L25.3132 8.48164C24.9032 8.02589 24.3807 7.72334 23.7165 7.55738C23.102 7.39653 22.2142 7.31738 20.9674 7.31738C19.6083 7.31738 18.686 7.42589 18.0639 7.66079C18.0626 7.66079 18.0626 7.66206 18.0613 7.66206C17.5478 7.84717 17.1199 8.19185 16.8056 8.66419C16.439 8.17015 15.9817 7.83185 15.4145 7.64036C14.7694 7.42334 13.5712 7.31738 12.0587 7.31738C10.9231 7.31738 10.1439 7.39781 9.67506 7.56377L9.66995 7.56504C9.3161 7.69781 8.97886 7.92377 8.64546 8.24419C8.64546 7.95823 8.64546 7.77696 8.64546 7.77696H6.89795V16.9033H8.64035V11.1063C8.64035 9.59228 10.1784 8.99483 11.733 8.99483H12.5122C14.0668 8.99483 15.6202 9.59228 15.6202 11.1063V16.9033H17.3613V11.1063C17.3613 9.59228 18.8814 8.99483 20.436 8.99483H21.2153C22.7686 8.99483 24.3271 9.59228 24.3271 11.1063V16.9033H26.0669V11.9259C26.0669 10.7948 26.0235 10.108 25.9251 9.6944Z" fill="#006CB6"/>
<path d="M95.1919 12.8005H96.0835C96.095 12.586 96.1027 12.3652 96.1027 12.1328C96.1027 11.0477 95.9762 10.1554 95.7246 9.48771C95.4704 8.79325 94.603 7.22559 90.3913 7.22559C86.1797 7.22559 85.311 8.79325 85.0568 9.48771C84.8065 10.1554 84.6787 11.0477 84.6787 12.1328C84.6787 13.2179 84.8065 14.1103 85.0568 14.7766C85.311 15.4711 86.1784 17.0401 90.3913 17.0401C94.603 17.0401 95.4704 15.4724 95.7246 14.7766C95.7476 14.7167 95.768 14.6528 95.7884 14.5877H93.6845C93.521 14.7856 93.3039 14.9298 93.019 15.0294C92.5681 15.1737 91.7748 15.2579 90.3901 15.2784C89.0041 15.2579 88.2121 15.1749 87.7611 15.0294C87.3268 14.8788 87.0445 14.6235 86.8835 14.229C86.7839 13.9966 86.6753 13.5064 86.6306 12.8081H95.1919V12.8005ZM87.7624 9.23495C88.2133 9.09069 89.0066 9.00644 90.3913 8.98601C91.7761 9.00644 92.5693 9.08942 93.0203 9.23495C93.4546 9.38559 93.7369 9.64091 93.8991 10.0354C93.9834 10.2332 94.0741 10.6175 94.1291 11.1562H86.6549C86.7085 10.6175 86.8005 10.232 86.8848 10.0354C87.0458 9.64091 87.3281 9.38559 87.7624 9.23495Z" fill="#EC1F26"/>
<path d="M52.2119 7.30469V16.9034H53.9556V7.30469H52.2119Z" fill="#006CB6"/>
<path d="M50.606 9.48881C50.3518 8.79307 49.4845 7.22541 45.2728 7.22541C43.6607 7.22541 42.5404 7.45647 41.7561 7.77817V2.96924H40.0137V16.9288H41.7561V16.4884C42.5404 16.8114 43.6607 17.0412 45.2728 17.0412C49.4845 17.0412 50.3531 15.4735 50.606 14.779C50.8577 14.1114 50.9841 13.219 50.9841 12.1339C50.9841 11.0475 50.8577 10.1565 50.606 9.48881ZM48.7793 14.2301C48.6171 14.6246 48.3361 14.8786 47.9017 15.0305C47.4508 15.176 46.6575 15.259 45.2728 15.2795C43.8881 15.259 43.3414 15.176 42.8904 15.0305C42.4561 14.8799 42.1738 14.6246 42.0116 14.2301C41.9094 13.9914 41.7969 13.482 41.7548 12.7556V11.5109C41.7969 10.7846 41.9094 10.2752 42.0116 10.0365C42.1738 9.642 42.4548 9.38668 42.8904 9.23605C43.3414 9.09179 43.8868 9.00754 45.2728 8.98711C46.6575 9.00754 47.4508 9.09179 47.9017 9.23605C48.3361 9.38668 48.6171 9.642 48.7793 10.0365C48.9083 10.3377 49.054 11.0743 49.054 12.1339C49.054 13.1935 48.9083 13.9288 48.7793 14.2301Z" fill="#006CB6"/>
</svg>
