<?xml version="1.0" encoding="utf-8"?>
<!-- Generator: Adobe Illustrator 24.0.0, SVG Export Plug-In . SVG Version: 6.00 Build 0)  -->
<svg version="1.1" id="Layer_1" xmlns="http://www.w3.org/2000/svg" xmlns:xlink="http://www.w3.org/1999/xlink" x="0px" y="0px"
	 viewBox="0 0 1000 1000" style="enable-background:new 0 0 1000 1000;" xml:space="preserve">
<style type="text/css">
	.st0{fill:#0061AF;}
	.st1{fill:#F2F2F2;}
</style>
<g>
	<path class="st0" d="M236.8,2.3h526.3c130.8,0,236.8,106,236.8,236.8v521.3c0,130.8-106,236.8-236.8,236.8H236.8
		C106,997.3,0,891.3,0,760.5V239.1C0,108.3,106,2.3,236.8,2.3z"/>
	<path class="st1" d="M779.3,384.8c-0.5-0.4-1-0.7-1.5-1.1L535.3,201.8c-22.5-16.8-48.2-16.8-70.5,0L222.2,383.7
		c-29.7,22.3-39.7,43-39.7,69.5v317.5c0,21.9,17.8,39.7,39.7,39.7h555.6c21.9,0,39.7-17.8,39.7-39.7V453.2
		C817.5,427.1,809,407.6,779.3,384.8z M727,719.6h-90.8V538c0-25.1-20.3-45.4-45.4-45.4c-25.1,0-45.4,20.3-45.4,45.4v181.6h-90.8
		V538c0-25.1-20.3-45.4-45.4-45.4c-25.1,0-45.4,20.3-45.4,45.4v181.6H273V538c0-75.2,61-136.2,136.2-136.2
		c34.9,0,66.7,13.1,90.8,34.7c24.1-21.6,55.9-34.7,90.8-34.7c75.2,0,136.2,61,136.2,136.2L727,719.6L727,719.6z"/>
</g>
</svg>
