<svg width="76" height="76" viewBox="0 0 76 76" fill="none" xmlns="http://www.w3.org/2000/svg">
<rect width="76" height="75.62" rx="18" fill="#0061AF"/>
<path d="M59.0341 29.283C58.9971 29.2549 58.9609 29.2283 58.9239 29.2002L40.4918 15.3769C38.785 14.0964 36.8273 14.1028 35.1301 15.3769L16.6972 29.2002C14.4403 30.8933 13.6802 32.4682 13.6802 34.479V58.6098C13.6802 60.2748 15.0307 61.6253 16.6972 61.6253H58.9247C60.5897 61.6253 61.9402 60.2748 61.9402 58.6098V34.479C61.9402 32.4996 61.2959 31.0107 59.0341 29.283ZM55.0615 54.7249H48.1611V40.9241C48.1611 39.0187 46.616 37.4744 44.7114 37.4744C42.8059 37.4744 41.2616 39.0195 41.2616 40.9241V54.7249H34.3612V40.9241C34.3612 39.0187 32.8161 37.4744 30.9114 37.4744C29.0059 37.4744 27.4616 39.0195 27.4616 40.9241V54.7249H20.5612V40.9241C20.5612 35.2069 25.195 30.574 30.9114 30.574C33.5633 30.574 35.9803 31.5697 37.8118 33.209C39.6432 31.5697 42.0603 30.574 44.7122 30.574C50.4294 30.574 55.0623 35.2077 55.0623 40.9241V54.7249H55.0615Z" fill="#F2F2F2"/>
</svg> 
