<svg fill="none" height="189" width="238" xmlns="http://www.w3.org/2000/svg" xmlns:xlink="http://www.w3.org/1999/xlink"><linearGradient id="a"><stop offset="0" stop-color="#548494"/><stop offset="1" stop-color="#cfd8dc"/></linearGradient><linearGradient id="b" gradientUnits="userSpaceOnUse" x1="119.014" x2="119.014" xlink:href="#a" y1="0" y2="50"/><linearGradient id="c" gradientUnits="userSpaceOnUse" x1="212.026" x2="212.026" xlink:href="#a" y1="149" y2="189"/><linearGradient id="d" gradientUnits="userSpaceOnUse" x1="234.714" x2="234.714" xlink:href="#a" y1="159.25" y2="176.414"/><linearGradient id="e" gradientUnits="userSpaceOnUse" x1="230.48" x2="230.48" xlink:href="#a" y1="162" y2="173.125"/><linearGradient id="f" gradientUnits="userSpaceOnUse" x1="19.31" x2="19.31" xlink:href="#a" y1="164.172" y2="172.448"/><linearGradient id="g" gradientUnits="userSpaceOnUse" x1="19.31" x2="19.31" xlink:href="#a" y1="160.723" y2="176.585"/><linearGradient id="h" gradientUnits="userSpaceOnUse" x1="19.31" x2="19.31" xlink:href="#a" y1="149" y2="159.345"/><linearGradient id="i" gradientUnits="userSpaceOnUse" x1="19.31" x2="19.31" xlink:href="#a" y1="184.184" y2="188.999"/><linearGradient id="j" gradientUnits="userSpaceOnUse" x1="19.314" x2="19.314" xlink:href="#a" y1="182.117" y2="186.077"/><linearGradient id="k" gradientUnits="userSpaceOnUse" x1="19.31" x2="19.31" xlink:href="#a" y1="180.043" y2="183.123"/><path d="m103.943 9.351a1.042 1.042 0 0 1 -.25-1.417 18.764 18.764 0 0 1 21.196-6.99 18.762 18.762 0 0 1 9.446 6.99 1.044 1.044 0 0 1 -.845 1.636 1.041 1.041 0 0 1 -.854-.438 16.677 16.677 0 0 0 -27.245 0 1.043 1.043 0 0 1 -1.449.22h.001zm19.803 7.088a1.044 1.044 0 0 0 1.387.479c.461-.26.654-.825.448-1.313a7.298 7.298 0 0 0 -9.227-3.613 7.295 7.295 0 0 0 -3.906 3.613 1.042 1.042 0 0 0 1.876.907 5.212 5.212 0 0 1 9.38 0zm4.868-3.961a1.041 1.041 0 0 0 1.448.302c.48-.314.615-.957.303-1.438a13.55 13.55 0 0 0 -22.701 0 1.042 1.042 0 0 0 1.09 1.589c.272-.057.51-.22.661-.453a11.465 11.465 0 0 1 19.199 0zm-10.642 9.38v8.338a1.042 1.042 0 1 0 2.084 0v-8.338a1.042 1.042 0 1 0 -2.084 0zm26.057 13.727v11.111a3.303 3.303 0 0 1 -3.304 3.304h-43.421a3.304 3.304 0 0 1 -3.304-3.304v-11.11a3.302 3.302 0 0 1 3.304-3.305h43.421a3.304 3.304 0 0 1 3.304 3.304zm-39.606 4.513a2.084 2.084 0 1 0 -4.169.001 2.084 2.084 0 0 0 4.169 0zm8.338 0a2.084 2.084 0 1 0 -4.169.001 2.084 2.084 0 0 0 4.169 0zm8.338 0a2.084 2.084 0 1 0 -4.169.001 2.084 2.084 0 0 0 4.169 0z" fill="url(#b)"/><path d="m203.776 149c-3.25 0-5.5 2-5.5 5v30c0 2.75 2.5 5 5.5 5h16.5c3 0 5.5-2.25 5.5-5v-30c0-3-1.75-5-5.25-5zm13 36.25h-9.25c-.75 0-1.5-.5-1.5-1.25s.75-1.25 1.5-1.25h9.25c.75 0 1.5.5 1.5 1.25s-.75 1.25-1.5 1.25zm4-6.25h-17.5v-24.5c0-.75.75-1.5 1.5-1.5h14.25c.75 0 1.5.75 1.5 1.5v24.5z" fill="url(#c)"/><path d="m234.277 176c2.25-2.25 3.25-5.25 3.25-8 0-3-1.001-6-3.25-8.25-.25-.25-.5-.5-1-.5-.251 0-.751.25-1.001.5-.5.5-.5 1.5 0 2 1.75 1.75 2.5 4 2.5 6.25s-.75 4.5-2.5 6.25c-.5.5-.5 1.25 0 2 .751.25 1.5.25 2.001-.25z" fill="url(#d)"/><path d="m230.527 172.75c-.5.5-1.25.5-1.75 0s-.5-1.25 0-1.75c2-2 2-5 0-7-.5-.5-.5-1.25 0-1.75.25-.25.5-.25.75-.25s.5 0 .75.25c3 3 3 7.5.25 10.5z" fill="url(#e)"/><path d="m19.31 172.448a4.138 4.138 0 1 0 0-8.277 4.138 4.138 0 0 0 0 8.277zm-1.034-6.207a1.034 1.034 0 1 1 0 2.069 1.034 1.034 0 0 1 0-2.069z" fill="url(#f)"/><path d="m19.31 176.585a16.573 16.573 0 0 0 16.537-15.862h-33.074a16.573 16.573 0 0 0 16.538 15.862zm0-13.793a5.515 5.515 0 0 1 5.517 5.517 5.517 5.517 0 0 1 -11.034 0 5.525 5.525 0 0 1 5.517-5.517zm-8.516 7.2-.897 1.048a14.456 14.456 0 0 1 -3.62-4.684l1.24-.604a13.07 13.07 0 0 0 3.277 4.24zm-3.931-5.856-1.31.432a14.476 14.476 0 0 1 -.435-1.639l1.352-.276c.101.502.232.997.392 1.483z" fill="url(#g)"/><path d="m0 149v10.345h38.62v-10.345z" fill="url(#h)"/><path d="m27.098 184.394a11.011 11.011 0 0 1 -15.576 0 .687.687 0 0 0 -.984-.008.686.686 0 0 0 .009.983 12.394 12.394 0 0 0 17.527 0 .688.688 0 0 0 -.485-1.185.687.687 0 0 0 -.49.21z" fill="url(#i)"/><path d="m12.615 182.328a.69.69 0 0 0 0 .975 9.466 9.466 0 0 0 13.389 0 .69.69 0 1 0 -.975-.975 8.099 8.099 0 0 1 -11.439 0 .688.688 0 0 0 -.975 0z" fill="url(#j)"/><path d="m23.935 181.212a.69.69 0 0 0 -.975-.976 5.17 5.17 0 0 1 -7.3 0 .69.69 0 0 0 -.976.976 6.553 6.553 0 0 0 9.251 0z" fill="url(#k)"/><path d="m73.495 70c0-.303-.2-.548-.446-.548h-4.019c-.246 0-.446.245-.446.548s.2.548.446.548h3.571v4.388c0 .302.2.548.447.548.246 0 .446-.246.446-.548v-4.936zm-.762-.388-48.049 59.028.631.776 48.05-59.027-.632-.776zm-37.148 59.415c0 .303.2.548.447.548h4.017c.247 0 .447-.245.447-.548s-.2-.549-.447-.549h-3.571v-4.387c0-.303-.2-.548-.446-.548-.247 0-.447.245-.447.548zm48.18-59.415-48.049 59.028.631.776 48.05-59.027-.632-.776zm128.974 59.415c0 .303-.2.548-.446.548h-4.018c-.247 0-.446-.245-.446-.548s.199-.549.446-.549h3.571v-4.387c0-.303.2-.548.447-.548.246 0 .446.245.446.548zm-48.18-59.415 48.049 59.027-.631.776-48.049-59.027zm-11.793.388c0-.303.199-.548.446-.548h4.017c.247 0 .447.245.447.548s-.2.548-.447.548h-3.571v4.388c0 .302-.2.548-.446.548-.247 0-.446-.246-.446-.548zm.762-.388 48.049 59.027-.632.776-48.049-59.027zm23.329 95.742a.5.5 0 0 0 0-.708l-3.182-3.182a.5.5 0 0 0 -.707.708l2.829 2.828-2.829 2.828a.5.5 0 0 0 .707.708zm-115.857.146h115.504v-1h-115.504zm-.354 7.881a.5.5 0 0 0 0 .707l3.182 3.182a.5.5 0 0 0 .707-.707l-2.828-2.829 2.828-2.828a.5.5 0 1 0 -.707-.707zm.354.853h115.504v-1h-115.504z" fill="#cfd8dc"/></svg>