<svg width="345" height="92" viewBox="0 0 345 92" fill="none" xmlns="http://www.w3.org/2000/svg">
<rect x="1" y="1" width="32.8" height="30" fill="black" fill-opacity="0.5" stroke="#BDBDBD" stroke-width="0.1"/>
<rect x="33.7998" y="1" width="32.8" height="30" fill="black" fill-opacity="0.5" stroke="#BDBDBD" stroke-width="0.1"/>
<rect x="66.6001" y="1" width="32.8" height="30" fill="black" fill-opacity="0.5" stroke="#BDBDBD" stroke-width="0.1"/>
<rect x="99.3999" y="1" width="32.8" height="30" fill="black" fill-opacity="0.5" stroke="#BDBDBD" stroke-width="0.1"/>
<rect x="132.2" y="1" width="32.8" height="30" fill="black" fill-opacity="0.5" stroke="#BDBDBD" stroke-width="0.1"/>
<rect x="1" y="31" width="32.8" height="30" fill="black" fill-opacity="0.5" stroke="#BDBDBD" stroke-width="0.1"/>
<rect x="33.7998" y="31" width="32.8" height="30" fill="black" fill-opacity="0.5" stroke="#BDBDBD" stroke-width="0.1"/>
<rect x="66.6001" y="31" width="32.8" height="30" fill="#2D9CDB" fill-opacity="0.6" stroke="#BDBDBD" stroke-width="0.1"/>
<rect x="99.3999" y="31" width="32.8" height="30" fill="black" fill-opacity="0.5" stroke="#BDBDBD" stroke-width="0.1"/>
<rect x="132.2" y="31" width="32.8" height="30" fill="black" fill-opacity="0.5" stroke="#BDBDBD" stroke-width="0.1"/>
<rect x="1" y="61" width="32.8" height="30" fill="black" fill-opacity="0.5" stroke="#BDBDBD" stroke-width="0.1"/>
<rect x="33.7998" y="61" width="32.8" height="30" fill="black" fill-opacity="0.5" stroke="#BDBDBD" stroke-width="0.1"/>
<rect x="66.6001" y="61" width="32.8" height="30" fill="black" fill-opacity="0.5" stroke="#BDBDBD" stroke-width="0.1"/>
<rect x="99.3999" y="61" width="32.8" height="30" fill="black" fill-opacity="0.5" stroke="#BDBDBD" stroke-width="0.1"/>
<rect x="132.2" y="61" width="32.8" height="30" fill="black" fill-opacity="0.5" stroke="#BDBDBD" stroke-width="0.1"/>
<rect x="78" y="42" width="8" height="8" rx="4" fill="#F2F2F2"/>
<g filter="url(#filter0_d_3604_37973)">
<path d="M93.8841 63.1505C93.8036 63.8669 93.707 64.5751 93.6103 65.2755L93.6107 65.2751C93.4027 67.5351 92.7282 69.7276 91.6306 71.7139C91.1189 72.5615 90.2063 73.085 89.216 73.0984H82.9465C82.5491 73.0987 82.1538 73.0445 81.7712 72.9374C80.8291 72.6733 79.9879 72.1322 79.3566 71.3841L72.6764 63.6575C72.1705 63.0499 71.9323 62.2627 72.0167 61.4765C72.0684 60.8588 72.3232 60.276 72.7411 59.8183C73.164 59.3663 73.7633 59.1216 74.382 59.1478C75.0008 59.1741 75.5771 59.4691 75.9605 59.9552L78.2704 62.6274H78.2701C78.3883 62.7751 78.5726 62.8538 78.7612 62.8365C79.1069 62.7794 79.3537 62.47 79.3325 62.1204V46.7317C79.2959 46.1241 79.4705 45.5229 79.8269 45.0296C80.1837 44.5366 80.7001 44.1824 81.2883 44.0272C81.6541 43.9679 82.0285 44.006 82.3748 44.1375C82.7208 44.2686 83.0262 44.4889 83.2601 44.776C83.7193 45.302 83.9712 45.9772 83.9687 46.6752V52.0677V53.5003C84.2971 53.1704 84.7423 52.9825 85.208 52.9771C85.7351 52.9854 86.232 53.2236 86.5683 53.6293C86.9456 54.0791 87.1457 54.6515 87.1317 55.239V55.6816C87.2815 55.3662 87.5158 55.0985 87.8083 54.9084C88.1011 54.718 88.4407 54.6123 88.7895 54.603C89.3195 54.6077 89.8204 54.8463 90.1578 55.2548C90.5351 55.705 90.7356 56.2774 90.7212 56.8645V57.3395C91.051 56.6554 91.4376 56.1886 92.1699 56.1886C93.337 56.1886 93.7796 56.9935 93.9327 58.0477C94.1325 59.7439 94.1163 61.4586 93.8842 63.1506L93.8841 63.1505Z" fill="#FFD7B4"/>
</g>
<rect x="180" y="1" width="32.8" height="30" fill="black" fill-opacity="0.5" stroke="#BDBDBD" stroke-width="0.1"/>
<rect x="212.8" y="1" width="32.8" height="30" fill="#2D9CDB" fill-opacity="0.6" stroke="#BDBDBD" stroke-width="0.1"/>
<rect x="245.6" y="1" width="32.8" height="30" fill="#2D9CDB" fill-opacity="0.6" stroke="#BDBDBD" stroke-width="0.1"/>
<rect x="278.4" y="1" width="32.8" height="30" fill="#2D9CDB" fill-opacity="0.6" stroke="#BDBDBD" stroke-width="0.1"/>
<rect x="311.2" y="1" width="32.8" height="30" fill="black" fill-opacity="0.5" stroke="#BDBDBD" stroke-width="0.1"/>
<rect x="180" y="31" width="32.8" height="30" fill="#2D9CDB" fill-opacity="0.6" stroke="#BDBDBD" stroke-width="0.1"/>
<rect x="212.8" y="31" width="32.8" height="30" fill="#2D9CDB" fill-opacity="0.6" stroke="#BDBDBD" stroke-width="0.1"/>
<rect x="245.6" y="31" width="32.8" height="30" fill="black" fill-opacity="0.5" stroke="#BDBDBD" stroke-width="0.1"/>
<rect x="278.4" y="31" width="32.8" height="30" fill="#2D9CDB" fill-opacity="0.6" stroke="#BDBDBD" stroke-width="0.1"/>
<rect x="311.2" y="31" width="32.8" height="30" fill="black" fill-opacity="0.5" stroke="#BDBDBD" stroke-width="0.1"/>
<rect x="180" y="61" width="32.8" height="30" fill="black" fill-opacity="0.5" stroke="#BDBDBD" stroke-width="0.1"/>
<rect x="212.8" y="61" width="32.8" height="30" fill="#2D9CDB" fill-opacity="0.6" stroke="#BDBDBD" stroke-width="0.1"/>
<rect x="245.6" y="61" width="32.8" height="30" fill="#2D9CDB" fill-opacity="0.6" stroke="#BDBDBD" stroke-width="0.1"/>
<rect x="278.4" y="61" width="32.8" height="30" fill="black" fill-opacity="0.5" stroke="#BDBDBD" stroke-width="0.1"/>
<rect x="311.2" y="61" width="32.8" height="30" fill="black" fill-opacity="0.5" stroke="#BDBDBD" stroke-width="0.1"/>
<rect x="257" y="42" width="8" height="8" rx="4" fill="#F2F2F2"/>
<g filter="url(#filter1_d_3604_37973)">
<path d="M272.884 63.1505C272.804 63.8669 272.707 64.5751 272.61 65.2755L272.611 65.2751C272.403 67.5351 271.728 69.7276 270.631 71.7139C270.119 72.5615 269.206 73.085 268.216 73.0984H261.946C261.549 73.0987 261.154 73.0445 260.771 72.9374C259.829 72.6733 258.988 72.1322 258.357 71.3841L251.676 63.6575C251.17 63.0499 250.932 62.2627 251.017 61.4765C251.068 60.8588 251.323 60.276 251.741 59.8183C252.164 59.3663 252.763 59.1216 253.382 59.1478C254.001 59.1741 254.577 59.4691 254.96 59.9552L257.27 62.6274H257.27C257.388 62.7751 257.573 62.8538 257.761 62.8365C258.107 62.7794 258.354 62.47 258.333 62.1204V46.7317C258.296 46.1241 258.471 45.5229 258.827 45.0296C259.184 44.5366 259.7 44.1824 260.288 44.0272C260.654 43.9679 261.028 44.006 261.375 44.1375C261.721 44.2686 262.026 44.4889 262.26 44.776C262.719 45.302 262.971 45.9772 262.969 46.6752V52.0677V53.5003C263.297 53.1704 263.742 52.9825 264.208 52.9771C264.735 52.9854 265.232 53.2236 265.568 53.6293C265.946 54.0791 266.146 54.6515 266.132 55.239V55.6816C266.282 55.3662 266.516 55.0985 266.808 54.9084C267.101 54.718 267.441 54.6123 267.79 54.603C268.32 54.6077 268.82 54.8463 269.158 55.2548C269.535 55.705 269.736 56.2774 269.721 56.8645V57.3395C270.051 56.6554 270.438 56.1886 271.17 56.1886C272.337 56.1886 272.78 56.9935 272.933 58.0477C273.132 59.7439 273.116 61.4586 272.884 63.1506L272.884 63.1505Z" fill="#FFD7B4"/>
</g>
<defs>
<filter id="filter0_d_3604_37973" x="70" y="42" width="26.0713" height="33.0986" filterUnits="userSpaceOnUse" color-interpolation-filters="sRGB">
<feFlood flood-opacity="0" result="BackgroundImageFix"/>
<feColorMatrix in="SourceAlpha" type="matrix" values="0 0 0 0 0 0 0 0 0 0 0 0 0 0 0 0 0 0 127 0" result="hardAlpha"/>
<feOffset/>
<feGaussianBlur stdDeviation="1"/>
<feComposite in2="hardAlpha" operator="out"/>
<feColorMatrix type="matrix" values="0 0 0 0 0 0 0 0 0 0 0 0 0 0 0 0 0 0 0.25 0"/>
<feBlend mode="normal" in2="BackgroundImageFix" result="effect1_dropShadow_3604_37973"/>
<feBlend mode="normal" in="SourceGraphic" in2="effect1_dropShadow_3604_37973" result="shape"/>
</filter>
<filter id="filter1_d_3604_37973" x="249" y="42" width="26.0713" height="33.0986" filterUnits="userSpaceOnUse" color-interpolation-filters="sRGB">
<feFlood flood-opacity="0" result="BackgroundImageFix"/>
<feColorMatrix in="SourceAlpha" type="matrix" values="0 0 0 0 0 0 0 0 0 0 0 0 0 0 0 0 0 0 127 0" result="hardAlpha"/>
<feOffset/>
<feGaussianBlur stdDeviation="1"/>
<feComposite in2="hardAlpha" operator="out"/>
<feColorMatrix type="matrix" values="0 0 0 0 0 0 0 0 0 0 0 0 0 0 0 0 0 0 0.25 0"/>
<feBlend mode="normal" in2="BackgroundImageFix" result="effect1_dropShadow_3604_37973"/>
<feBlend mode="normal" in="SourceGraphic" in2="effect1_dropShadow_3604_37973" result="shape"/>
</filter>
</defs>
</svg>
