<svg width="361" height="138" viewBox="0 0 361 138" fill="none" xmlns="http://www.w3.org/2000/svg" xmlns:xlink="http://www.w3.org/1999/xlink">
<g filter="url(#filter0_d_3895_38257)">
<path fill-rule="evenodd" clip-rule="evenodd" d="M135 7C135 10.3137 132.314 13 129 13C125.686 13 123 10.3137 123 7H13C10.7909 7 9 8.79086 9 11V123C9 125.209 10.7909 127 13 127H123C123 123.686 125.686 121 129 121C132.314 121 135 123.686 135 127H348C350.209 127 352 125.209 352 123V11C352 8.79086 350.209 7 348 7H135Z" fill="white"/>
</g>
<path d="M129 17L129 117" stroke="#979797" stroke-width="0.5" stroke-linecap="round" stroke-dasharray="3 5"/>
<rect x="19" y="17" width="100" height="100" rx="4" fill="url(#pattern0)"/>
<defs>
<filter id="filter0_d_3895_38257" x="0" y="0" width="361" height="138" filterUnits="userSpaceOnUse" color-interpolation-filters="sRGB">
<feFlood flood-opacity="0" result="BackgroundImageFix"/>
<feColorMatrix in="SourceAlpha" type="matrix" values="0 0 0 0 0 0 0 0 0 0 0 0 0 0 0 0 0 0 127 0" result="hardAlpha"/>
<feOffset dy="2"/>
<feGaussianBlur stdDeviation="4.5"/>
<feColorMatrix type="matrix" values="0 0 0 0 0.607892 0 0 0 0 0.607803 0 0 0 0 0.607923 0 0 0 0.25 0"/>
<feBlend mode="normal" in2="BackgroundImageFix" result="effect1_dropShadow_3895_38257"/>
<feBlend mode="normal" in="SourceGraphic" in2="effect1_dropShadow_3895_38257" result="shape"/>
</filter>
<pattern id="pattern0" patternContentUnits="objectBoundingBox" width="1" height="1">
</pattern>
</defs>
</svg>
