<svg width="231" height="185" viewBox="0 0 231 185" fill="none" xmlns="http://www.w3.org/2000/svg">
<path d="M39.3479 182.311C39.3479 182.311 -0.812683 152.272 0.0125427 112.45C0.837753 72.6279 33.4339 56.0928 60.5285 75.935C79.5086 89.8521 100.414 92.7457 112.38 71.939C124.345 51.1322 151.027 29.361 186.099 41.4868C221.171 53.6125 234.099 95.6394 230.386 126.367C227.959 146.966 219.158 166.288 205.217 181.622L203.979 183L39.3479 182.311Z" fill="url(#paint0_linear_3292_35681)"/>
<path d="M71.9712 0.754494C66.3541 5.16108 58.5722 8.62339 50.0149 10.5103L49.9305 26.6533C49.8918 34.0396 53.3239 40.7221 60.1315 46.5152C64.6046 50.3213 69.3076 52.6828 71.6939 53.7433C71.7966 53.6997 71.9093 53.648 72.0201 53.5996V0.791603C72.0039 0.780304 71.9869 0.76741 71.9712 0.754494Z" fill="#FAFAFA" fill-opacity="0.5"/>
<path d="M72.0571 0.75407V53.8108C74.5382 52.7015 79.0475 50.41 83.3662 46.7822C90.2323 41.0137 93.7335 34.3272 93.7718 26.9062L93.8564 10.6872C85.3453 8.7314 77.6226 5.20573 72.0571 0.75407Z" fill="#FAFAFA" fill-opacity="0.5"/>
<path d="M72.1935 0.717819C63.8807 4.33679 59.5876 5.64345 51.5872 7.49019L51.5872 26.0651C51.551 33.2941 54.7598 39.8343 61.1243 45.5041C65.3063 49.2292 69.7032 51.5404 71.9342 52.5783C72.0302 52.5356 72.1356 52.4851 72.2392 52.4377V0.754135C72.224 0.743076 72.2081 0.730461 72.1935 0.717819Z" fill="#0061AF"/>
<path d="M72.2397 0.753983V52.4375C74.5598 51.357 78.7766 49.1248 82.815 45.5908C89.2357 39.9716 92.5098 33.4583 92.5456 26.2293V6.94157C84.4468 5.29632 76.0149 2.48568 72.2397 0.753983Z" fill="#2E77E6"/>
<path d="M72.5484 29.3013V32.0225C72.5484 32.3844 72.219 32.6855 71.814 32.6855C71.4023 32.6855 71.0727 32.3844 71.0727 32.0225V29.2951C70.4481 29.0423 70.0088 28.4772 70.0088 27.8266C70.0088 26.9357 70.8186 26.2169 71.814 26.2169C72.8092 26.2169 73.6125 26.9357 73.6125 27.8266C73.6125 28.4834 73.1799 29.0485 72.5484 29.3013ZM64.5176 24.202V33.8033C64.5176 34.8727 79.1037 34.8727 79.1037 33.8033V24.202H64.5176Z" fill="white"/>
<path d="M77.8267 23.5177H76.3501V22.8708C76.3501 20.6316 74.3136 18.8088 71.811 18.8088C69.3078 18.8088 67.2715 20.6316 67.2715 22.8708V23.5177H65.7949V22.8708C65.7949 19.903 68.4936 17.4878 71.811 17.4878C75.1278 17.4878 77.8267 19.903 77.8267 22.8708V23.5177Z" fill="white"/>
<path d="M214.571 184.282H22.2776C22.1022 184.283 21.9281 184.261 21.7655 184.218C21.6029 184.174 21.4551 184.11 21.3304 184.029C21.2057 183.947 21.1068 183.85 21.0393 183.744C20.9718 183.637 20.937 183.523 20.937 183.407C20.937 183.173 21.0783 182.948 21.3297 182.782C21.5811 182.617 21.9221 182.524 22.2776 182.524H214.571C214.747 182.524 214.921 182.547 215.082 182.591C215.244 182.636 215.391 182.701 215.515 182.783C215.638 182.865 215.736 182.962 215.802 183.07C215.868 183.177 215.901 183.291 215.9 183.407C215.9 183.639 215.76 183.862 215.511 184.026C215.261 184.19 214.924 184.282 214.571 184.282Z" fill="#E1E1E1"/>
<path d="M169.321 34.9572C170.064 32.0141 170.219 28.9532 169.775 25.9503L170.695 25.8189L172.534 25.5441H172.546C172.058 22.229 170.922 19.0425 169.201 16.1669L166.8 17.6123C165.244 15.0038 163.185 12.73 160.744 10.9228L162.416 8.66506C159.727 6.66387 156.671 5.21082 153.421 4.38856L152.729 7.12409C149.787 6.36988 146.724 6.2155 143.722 6.67016L143.303 3.88684C139.989 4.37824 136.803 5.51458 133.926 7.23159L135.36 9.64459C132.748 11.1969 130.474 13.2561 128.67 15.701L126.412 14.0167C124.413 16.7093 122.963 19.7701 122.148 23.0236L124.872 23.7164C124.122 26.6587 123.968 29.7208 124.418 32.7234L122.447 33.0101L121.646 33.1415H121.634C122.133 36.4538 123.269 39.6382 124.979 42.5187L127.392 41.0733C128.952 43.6826 131.015 45.9563 133.46 47.7628L131.788 50.0205C134.471 52.0238 137.524 53.4771 140.771 54.297L141.464 51.5615C144.409 52.3139 147.475 52.4723 150.483 52.0274L150.805 54.1776L150.901 54.7988C154.211 54.3052 157.392 53.169 160.266 51.454L158.833 49.041C161.442 47.4851 163.715 45.4265 165.522 42.9846L167.792 44.657C169.783 41.9652 171.228 38.9093 172.044 35.662L169.321 34.9572ZM144.032 41.3959C141.65 40.7897 139.5 39.4908 137.855 37.6634C136.211 35.8361 135.145 33.5622 134.792 31.1291C134.439 28.696 134.815 26.213 135.873 23.9937C136.931 21.7744 138.623 19.9185 140.735 18.6605C142.847 17.4025 145.285 16.7988 147.74 16.9258C150.196 17.0527 152.558 17.9046 154.529 19.3738C156.501 20.8429 157.992 22.8635 158.816 25.18C159.639 27.4966 159.757 30.0052 159.155 32.3889C158.344 35.5886 156.295 38.3351 153.459 40.0242C150.623 41.7133 147.232 42.2067 144.032 41.3959V41.3959Z" stroke="#B3D1FF" stroke-width="2" stroke-linejoin="round"/>
<path d="M180.049 59.9235C179.055 58.6712 177.82 57.6313 176.417 56.8654L176.644 56.4235L177.122 55.5753C175.58 54.7198 173.882 54.1797 172.129 53.9866L171.962 55.4559C170.373 55.2801 168.766 55.4181 167.231 55.862L166.813 54.4405C165.118 54.9341 163.536 55.7538 162.154 56.8535L163.086 58.0122C161.834 59.0087 160.79 60.2428 160.016 61.6437L158.726 60.9269C157.877 62.4767 157.338 64.1766 157.137 65.9321L158.607 66.0994C158.426 67.6875 158.564 69.2957 159.013 70.8298L157.591 71.2359C158.082 72.9321 158.902 74.5151 160.004 75.8947L161.163 74.9749C162.156 76.2272 163.391 77.2671 164.794 78.033L164.293 78.9528L164.09 79.335H164.078C165.628 80.1801 167.328 80.7157 169.083 80.9118L169.238 79.4545C170.831 79.6258 172.442 79.4838 173.98 79.0364L174.399 80.4579C176.092 79.9758 177.672 79.1594 179.045 78.0568L178.126 76.8981C179.381 75.9031 180.421 74.6636 181.184 73.2547L182.199 73.8162L182.486 73.9715C183.336 72.4275 183.872 70.7305 184.062 68.9782L182.593 68.811C182.774 67.2189 182.636 65.6067 182.187 64.0686L183.609 63.6625C183.126 61.9688 182.31 60.3887 181.207 59.0156L180.049 59.9235ZM174.685 72.5738C173.672 73.3793 172.444 73.8666 171.154 73.974C169.864 74.0814 168.572 73.8042 167.44 73.1774C166.308 72.5506 165.387 71.6023 164.793 70.4523C164.2 69.3024 163.961 68.0023 164.106 66.7164C164.251 65.4305 164.774 64.2165 165.609 63.2276C166.443 62.2388 167.552 61.5196 168.796 61.1609C170.039 60.8021 171.361 60.8199 172.594 61.212C173.827 61.6041 174.917 62.3529 175.724 63.3638C176.804 64.7246 177.3 66.4574 177.106 68.1833C176.911 69.9092 176.041 71.4878 174.685 72.5738V72.5738Z" stroke="#B3D1FF" stroke-width="2" stroke-linejoin="round"/>
<path d="M75.3915 127.499C74.2425 126.057 72.817 124.859 71.1987 123.975L71.4734 123.474L72.011 122.482H72.0229C70.2366 121.504 68.2769 120.883 66.2532 120.655L66.0621 122.351C64.2295 122.142 62.3736 122.3 60.603 122.817L60.1251 121.18C58.1681 121.746 56.3416 122.692 54.7496 123.964L55.8247 125.301C54.3791 126.445 53.1769 127.867 52.2889 129.482L50.7837 128.67C49.8091 130.454 49.1885 132.409 48.9561 134.428L50.6523 134.631C50.4414 136.464 50.6039 138.321 51.1301 140.09L49.4817 140.568C50.0455 142.522 50.9915 144.345 52.265 145.931L53.6029 144.868C54.7484 146.317 56.1745 147.52 57.7958 148.404L57.2104 149.467L56.9715 149.897C58.757 150.877 60.7171 151.498 62.7412 151.725L62.9323 150.041C64.7657 150.246 66.6216 150.084 68.3915 149.563L68.8693 151.199C70.8258 150.638 72.6524 149.696 74.2448 148.428L73.1697 147.09C74.6166 145.94 75.8223 144.515 76.7175 142.897L77.8762 143.53L78.2107 143.71C79.1924 141.929 79.8134 139.972 80.0384 137.952L78.3421 137.761C78.5451 135.924 78.3868 134.065 77.8762 132.29L79.5128 131.812C78.9466 129.858 78.0008 128.036 76.7295 126.448L75.3915 127.499ZM69.2157 142.097C68.0469 143.031 66.6274 143.597 65.1368 143.723C63.6463 143.85 62.1516 143.532 60.8419 142.809C59.5323 142.086 58.4665 140.991 57.7794 139.662C57.0923 138.333 56.8148 136.83 56.982 135.344C57.1492 133.857 57.7537 132.454 58.7188 131.311C59.6839 130.168 60.9664 129.337 62.4039 128.923C63.8415 128.509 65.3695 128.531 66.7947 128.985C68.2198 129.44 69.4781 130.307 70.4103 131.477C71.6588 133.044 72.2343 135.043 72.0103 137.034C71.7863 139.025 70.7812 140.846 69.2157 142.097V142.097Z" stroke="#003880" stroke-width="2" stroke-miterlimit="10"/>
<path d="M157.921 21.5275C156.568 13.5082 144.222 9.88852 144.454 15.1169L87.8551 15.446C83.9429 15.4704 80.762 19.0047 80.762 23.3313L80.6401 172.189C80.6401 176.674 83.8698 180.342 87.8673 180.379L145.648 180.866C146.001 181.622 146.672 182.304 147.732 182.877C154.362 183.023 157.531 179.745 158.701 176.052C159.092 175.017 159.286 173.917 159.274 172.81C159.042 170.873 158.335 23.4044 157.921 21.5275Z" fill="#BDBDBD"/>
<path d="M147.111 182.902L80.7991 182.476C76.6553 182.451 73.3038 178.685 73.316 174.066L73.5597 20.9796C73.5719 16.5312 76.8625 12.9115 80.9209 12.8994L145.953 12.6922C150.048 12.68 153.388 16.2875 153.424 20.7603L154.606 174.554C154.643 179.185 151.291 182.939 147.111 182.902Z" fill="white"/>
<path d="M148.025 181.792C147.75 181.827 147.473 181.844 147.196 181.841L80.8964 181.342C77.3377 181.317 74.4249 178.014 74.437 173.98L74.6686 21.0643C74.6686 17.1765 77.5327 14.0078 81.0183 13.9956L146.051 13.7153H146.355C147.988 13.7884 149.512 14.544 150.657 15.8115C151.841 17.1601 152.495 18.8923 152.498 20.6865L153.655 174.626C153.68 178.282 151.267 181.354 148.025 181.792Z" fill="black"/>
<path d="M150.206 21.4542L151.327 174.87L76.6426 174.419L76.8254 21.4542H150.206Z" fill="white"/>
<path d="M132.665 67.8614C136.725 58.0588 132.07 46.8205 122.268 42.7601C112.466 38.6997 101.228 43.3548 97.168 53.1574C93.1078 62.9601 97.7626 74.1983 107.565 78.2587C117.367 82.3191 128.605 77.6641 132.665 67.8614Z" fill="#0061AF"/>
<path d="M127.731 66.4096L117.146 48.0447C116.938 47.6819 116.637 47.3806 116.275 47.171C115.912 46.9615 115.501 46.8512 115.083 46.8512C114.664 46.8512 114.253 46.9615 113.89 47.171C113.528 47.3806 113.227 47.6819 113.019 48.0447L102.434 66.4096C102.214 66.7682 102.095 67.1799 102.09 67.6007C102.085 68.0216 102.194 68.4359 102.406 68.7997C102.618 69.1634 102.924 69.463 103.292 69.6665C103.661 69.8701 104.077 69.9699 104.498 69.9555H125.667C126.088 69.9699 126.504 69.8701 126.873 69.6665C127.241 69.463 127.547 69.1634 127.759 68.7997C127.971 68.4359 128.08 68.0216 128.075 67.6007C128.07 67.1799 127.951 66.7682 127.731 66.4096Z" fill="#EB5757"/>
<path d="M113.971 52.808C113.971 51.379 116.194 51.379 116.194 52.808V62.9695C116.194 63.2643 116.076 63.547 115.868 63.7554C115.66 63.9639 115.377 64.081 115.082 64.081C114.787 64.081 114.505 63.9639 114.296 63.7554C114.088 63.547 113.971 63.2643 113.971 62.9695V52.808Z" fill="white"/>
<path d="M115.082 68.209C114.883 68.2487 114.677 68.2436 114.479 68.1942C114.282 68.1448 114.098 68.0522 113.941 67.9231C113.783 67.794 113.657 67.6317 113.57 67.4477C113.483 67.2638 113.438 67.0629 113.438 66.8594C113.438 66.6559 113.483 66.455 113.57 66.271C113.657 66.0871 113.783 65.9247 113.941 65.7957C114.098 65.6666 114.282 65.574 114.479 65.5246C114.677 65.4751 114.883 65.4701 115.082 65.5098C115.394 65.5719 115.675 65.7404 115.877 65.9865C116.079 66.2326 116.19 66.541 116.19 66.8594C116.19 67.1777 116.079 67.4862 115.877 67.7323C115.675 67.9784 115.394 68.1468 115.082 68.209Z" fill="white"/>
<rect x="133.595" y="123.271" width="40.8605" height="40.8605" rx="20.4302" fill="#EB5757"/>
<path d="M147.631 135.452C149.476 134.049 151.68 133.288 154.005 133.288C159.818 133.288 164.549 138.018 164.549 143.831C164.549 144.071 164.549 144.312 164.509 144.512L163.987 143.991C163.386 143.35 162.344 143.35 161.702 143.951C161.061 144.552 161.061 145.595 161.662 146.236L165.872 150.526L170.522 146.317C171.163 145.715 171.243 144.713 170.642 144.031C170.041 143.39 169.039 143.31 168.357 143.911L167.715 144.512V143.831C167.715 136.254 161.542 130.081 153.965 130.081C150.919 130.081 148.072 131.043 145.627 132.887C144.905 133.408 144.785 134.41 145.306 135.132C145.908 135.853 146.95 135.973 147.631 135.452L147.631 135.452Z" fill="#F2F2F2"/>
<path d="M138.611 144.031C139.012 144.031 139.373 143.911 139.694 143.63L140.295 143.069C140.295 143.309 140.255 143.59 140.255 143.831C140.255 151.407 146.429 157.581 154.005 157.581C157.132 157.581 160.059 156.579 162.504 154.655C163.186 154.093 163.306 153.091 162.785 152.41C162.224 151.728 161.221 151.608 160.54 152.129C158.656 153.612 156.411 154.374 154.046 154.374C148.233 154.374 143.503 149.644 143.503 143.831C143.503 143.55 143.503 143.269 143.543 142.989L144.104 143.55C144.705 144.191 145.747 144.191 146.389 143.59C147.03 142.989 147.03 141.946 146.429 141.305L142.18 137.016L137.53 141.225C136.888 141.827 136.808 142.829 137.409 143.51C137.73 143.871 138.171 144.031 138.612 144.031L138.611 144.031Z" fill="#F2F2F2"/>
<path d="M135.684 90.2775H95.6201C93.7044 90.2775 92.1514 91.8306 92.1514 93.7464V95.8393C92.1514 97.7552 93.7044 99.3082 95.6201 99.3082H135.684C137.6 99.3082 139.153 97.7552 139.153 95.8393V93.7464C139.153 91.8306 137.6 90.2775 135.684 90.2775Z" stroke="#0061AF" stroke-miterlimit="10"/>
<path d="M107.472 96.7529C108.557 96.7529 109.437 95.8729 109.437 94.7872C109.437 93.7016 108.557 92.8215 107.472 92.8215C106.386 92.8215 105.506 93.7016 105.506 94.7872C105.506 95.8729 106.386 96.7529 107.472 96.7529Z" fill="#224C5E"/>
<path d="M99.2626 96.7529C100.348 96.7529 101.228 95.8729 101.228 94.7872C101.228 93.7016 100.348 92.8215 99.2626 92.8215C98.177 92.8215 97.2969 93.7016 97.2969 94.7872C97.2969 95.8729 98.177 96.7529 99.2626 96.7529Z" fill="#224C5E"/>
<path d="M115.681 96.7529C116.767 96.7529 117.647 95.8729 117.647 94.7872C117.647 93.7016 116.767 92.8215 115.681 92.8215C114.595 92.8215 113.715 93.7016 113.715 94.7872C113.715 95.8729 114.595 96.7529 115.681 96.7529Z" fill="#224C5E"/>
<path d="M123.89 96.7529C124.976 96.7529 125.856 95.8729 125.856 94.7872C125.856 93.7016 124.976 92.8215 123.89 92.8215C122.804 92.8215 121.924 93.7016 121.924 94.7872C121.924 95.8729 122.804 96.7529 123.89 96.7529Z" fill="#224C5E"/>
<path d="M132.1 96.7529C133.186 96.7529 134.066 95.8729 134.066 94.7872C134.066 93.7016 133.186 92.8215 132.1 92.8215C131.014 92.8215 130.134 93.7016 130.134 94.7872C130.134 95.8729 131.014 96.7529 132.1 96.7529Z" fill="#224C5E"/>
<defs>
<linearGradient id="paint0_linear_3292_35681" x1="115.5" y1="38" x2="115.5" y2="183" gradientUnits="userSpaceOnUse">
<stop stop-color="#E6F4FF"/>
<stop offset="1" stop-color="#D3E9FA"/>
</linearGradient>
</defs>
</svg>
