<svg width="343" height="249" viewBox="0 0 343 249" fill="none" xmlns="http://www.w3.org/2000/svg">
<path fill-rule="evenodd" clip-rule="evenodd" d="M111.718 85.4362C102.896 103.617 97.1685 123.306 103.912 142.82C111.327 164.274 125.895 185.671 148.264 191.187C169.78 196.494 187.529 179.685 205.553 167.886C224.165 155.703 251.042 146.27 250.909 123.999C250.778 102.013 221.906 93.8308 205.022 78.7894C188.104 63.7182 177.022 36.6572 154.653 38.2507C131.768 39.881 121.468 65.3437 111.718 85.4362Z" fill="url(#paint0_linear_3288_36461)"/>
<path d="M166.925 56.139C151.8 69.2779 135.242 79.5247 116.207 83.3361C116.207 128.401 133.156 158.62 166.925 174.387C200.695 158.62 217.643 128.401 217.643 83.3361C198.607 79.5253 182.05 69.2776 166.925 56.139ZM161.84 136.417L142.673 117.366L148.671 111.321L161.057 123.671L184.527 94.1093L191.176 99.4964L161.84 136.417Z" fill="#27AE60"/>
<path d="M224.573 151.043C219.112 151.043 214.669 155.485 214.669 160.946C214.669 166.407 219.112 170.849 224.573 170.849C230.034 170.849 234.476 166.407 234.476 160.946C234.476 155.485 230.034 151.043 224.573 151.043ZM224.573 167.549C220.932 167.549 217.97 164.587 217.97 160.946C217.97 157.306 220.932 154.344 224.573 154.344C228.214 154.344 231.175 157.306 231.175 160.946C231.175 164.587 228.214 167.549 224.573 167.549Z" fill="#27AE60"/>
<path d="M102.431 165.899C95.1494 165.899 89.2261 171.822 89.2261 179.103C89.2261 186.385 95.1494 192.308 102.431 192.308C109.712 192.308 115.636 186.385 115.636 179.103C115.636 171.822 109.712 165.899 102.431 165.899ZM102.431 189.007C96.9697 189.007 92.5274 184.564 92.5274 179.103C92.5274 173.643 96.97 169.2 102.431 169.2C107.892 169.2 112.334 173.643 112.334 179.103C112.334 184.564 107.892 189.007 102.431 189.007Z" fill="#27AE60"/>
<path d="M222.924 51.1818C222.924 52.5494 221.816 53.6577 220.448 53.6577C219.08 53.6577 217.972 52.5494 217.972 51.1818C217.972 49.8142 219.08 48.7059 220.448 48.7059C221.816 48.7059 222.924 49.8142 222.924 51.1818Z" fill="#27AE60"/>
<path d="M95.8258 47.8809C95.8258 49.2485 94.7175 50.3568 93.3499 50.3568C91.9823 50.3568 90.874 49.2485 90.874 47.8809C90.874 46.5133 91.9823 45.405 93.3499 45.405C94.7175 45.405 95.8258 46.5133 95.8258 47.8809Z" fill="#27AE60"/>
<path d="M85.9235 102.35C85.9235 103.717 84.8152 104.826 83.4476 104.826C82.0799 104.826 80.9717 103.717 80.9717 102.35C80.9717 100.982 82.0799 99.8738 83.4476 99.8738C84.8152 99.8738 85.9235 100.982 85.9235 102.35Z" fill="#27AE60"/>
<path d="M231.175 137.014C231.175 138.382 230.067 139.49 228.7 139.49C227.332 139.49 226.224 138.382 226.224 137.014C226.224 135.646 227.332 134.538 228.7 134.538C230.067 134.538 231.175 135.646 231.175 137.014Z" fill="#27AE60"/>
<path d="M203.116 178.279C203.116 179.647 202.008 180.755 200.64 180.755C199.273 180.755 198.165 179.647 198.165 178.279C198.165 176.911 199.273 175.803 200.64 175.803C202.008 175.803 203.116 176.911 203.116 178.279Z" fill="#27AE60"/>
<path d="M137.091 184.88C137.091 186.248 135.983 187.356 134.615 187.356C133.247 187.356 132.139 186.248 132.139 184.88C132.139 183.513 133.247 182.404 134.615 182.404C135.983 182.404 137.091 183.513 137.091 184.88Z" fill="#27AE60"/>
<path d="M92.5245 148.568C92.5245 149.936 91.4163 151.044 90.0486 151.044C88.681 151.044 87.5728 149.936 87.5728 148.568C87.5728 147.2 88.681 146.092 90.0486 146.092C91.4163 146.092 92.5245 147.2 92.5245 148.568Z" fill="#27AE60"/>
<defs>
<linearGradient id="paint0_linear_3288_36461" x1="108.375" y1="89.1152" x2="234.625" y2="159.885" gradientUnits="userSpaceOnUse">
<stop stop-color="#E6F4FF"/>
<stop offset="1" stop-color="#D3E9FA"/>
</linearGradient>
</defs>
</svg>
