<svg width="126" height="121" viewBox="0 0 126 121" fill="none" xmlns="http://www.w3.org/2000/svg">
<path d="M61.2858 9.63419C48.8681 20.339 35.2735 28.6875 19.6455 31.7928C19.6455 68.5094 33.5612 93.1299 61.2858 105.976C89.0116 93.1302 102.926 68.5094 102.926 31.7928C87.2974 28.688 73.7036 20.3388 61.2858 9.63419ZM57.1111 75.04L41.3749 59.5181L46.2995 54.5935L56.4686 64.6557L75.7369 40.5702L81.1964 44.9593L57.1111 75.04Z" fill="#27AE60"/>
<path d="M117.871 86.7096C113.388 86.7096 109.742 90.3561 109.742 94.8385C109.742 99.3209 113.388 102.967 117.871 102.967C122.353 102.967 126 99.3209 126 94.8385C126 90.3561 122.353 86.7096 117.871 86.7096ZM117.871 100.258C114.882 100.258 112.451 97.8272 112.451 94.8388C112.451 91.8504 114.882 89.4194 117.871 89.4194C120.859 89.4194 123.29 91.8504 123.29 94.8388C123.29 97.8272 120.859 100.258 117.871 100.258Z" fill="#27AE60"/>
<path d="M17.6141 98.9037C11.6373 98.9037 6.77539 103.766 6.77539 109.743C6.77539 115.719 11.6373 120.581 17.6141 120.581C23.5909 120.581 28.4529 115.719 28.4529 109.743C28.4529 103.766 23.5909 98.9037 17.6141 98.9037ZM17.6141 117.871C13.1315 117.871 9.4852 114.225 9.4852 109.743C9.4852 105.26 13.1317 101.614 17.6141 101.614C22.0966 101.614 25.7431 105.26 25.7431 109.743C25.7431 114.225 22.0966 117.871 17.6141 117.871Z" fill="#27AE60"/>
<path d="M116.518 4.7417C116.518 5.86427 115.608 6.77396 114.485 6.77396C113.363 6.77396 112.453 5.86427 112.453 4.7417C112.453 3.61913 113.363 2.70944 114.485 2.70944C115.608 2.70944 116.518 3.61913 116.518 4.7417Z" fill="#27AE60"/>
<path d="M12.1929 2.03226C12.1929 3.15483 11.2833 4.06452 10.1607 4.06452C9.03811 4.06452 8.12842 3.15483 8.12842 2.03226C8.12842 0.909688 9.03811 0 10.1607 0C11.2833 0 12.1929 0.909688 12.1929 2.03226Z" fill="#27AE60"/>
<path d="M4.06452 46.7414C4.06452 47.864 3.15483 48.7737 2.03226 48.7737C0.909688 48.7737 0 47.864 0 46.7414C0 45.6189 0.909688 44.7092 2.03226 44.7092C3.15483 44.7092 4.06452 45.6189 4.06452 46.7414Z" fill="#27AE60"/>
<path d="M123.291 75.1947C123.291 76.3172 122.381 77.2269 121.258 77.2269C120.136 77.2269 119.226 76.3172 119.226 75.1947C119.226 74.0721 120.136 73.1624 121.258 73.1624C122.381 73.1624 123.291 74.0721 123.291 75.1947Z" fill="#27AE60"/>
<path d="M100.259 109.066C100.259 110.188 99.3492 111.098 98.2266 111.098C97.104 111.098 96.1943 110.188 96.1943 109.066C96.1943 107.943 97.104 107.034 98.2266 107.034C99.3492 107.034 100.259 107.943 100.259 109.066Z" fill="#27AE60"/>
<path d="M46.0645 114.484C46.0645 115.607 45.1548 116.517 44.0323 116.517C42.9097 116.517 42 115.607 42 114.484C42 113.362 42.9097 112.452 44.0323 112.452C45.1548 112.452 46.0645 113.362 46.0645 114.484Z" fill="#27AE60"/>
<path d="M9.48297 84.6783C9.48297 85.8009 8.57329 86.7106 7.45072 86.7106C6.32814 86.7106 5.41846 85.8009 5.41846 84.6783C5.41846 83.5557 6.32814 82.6461 7.45072 82.6461C8.57329 82.6461 9.48297 83.5557 9.48297 84.6783Z" fill="#27AE60"/>
</svg>
